<?xml version="1.0" encoding="UTF-8"?>
<svg version="1.1" xmlns="http://www.w3.org/2000/svg" width="2192" height="583">
<path d="M0 0 C92.4 0 184.8 0 280 0 C280 92.4 280 184.8 280 280 C187.6 280 95.2 280 0 280 C0 187.6 0 95.2 0 0 Z " fill="#2D2D2C" transform="translate(0,303)"/>
<path d="M0 0 C92.4 0 184.8 0 280 0 C280 92.4 280 184.8 280 280 C187.6 280 95.2 280 0 280 C0 187.6 0 95.2 0 0 Z " fill="#2D2D2C" transform="translate(0,0)"/>
<path d="M0 0 C92.4 0 184.8 0 280 0 C280 26.88436455 280 26.88436455 278.875 35.25 C278.67596069 36.78394409 278.67596069 36.78394409 278.47290039 38.34887695 C274.31846129 68.3496183 265.50644502 97.86721254 252 125 C251.64083496 125.72928711 251.28166992 126.45857422 250.91162109 127.20996094 C239.89010246 149.39157141 225.37180464 169.47053727 209 188 C208.53126465 188.53189941 208.0625293 189.06379883 207.57958984 189.61181641 C195.59993873 203.11578184 182.53383485 214.81207264 168.00488281 225.51708984 C166.19547959 226.85541366 164.40457189 228.2145488 162.6171875 229.58203125 C116.07872986 264.63843084 57.41237251 280 0 280 C0 187.6 0 95.2 0 0 Z " fill="#2D2D2C" transform="translate(302,0)"/>
<path d="M0 0 C25.71385542 0 25.71385542 0 34.125 1.125 C35.1473877 1.25696777 36.16977539 1.38893555 37.22314453 1.52490234 C96.01509656 9.60379643 154.54330275 35.67775137 196 79 C198.47636373 81.49679577 200.96833505 83.96966675 203.5078125 86.40234375 C210.24259083 92.92603201 216.08290771 99.84774817 221.72851562 107.32714844 C222.8780565 108.83956281 224.05470048 110.33128278 225.234375 111.8203125 C262.68283031 159.79260379 280 219.79946851 280 280 C187.6 280 95.2 280 0 280 C0 187.6 0 95.2 0 0 Z " fill="#2D2D2C" transform="translate(302,303)"/>
<path d="M0 0 C2.96912458 2.8534444 3.96910539 4.08529881 4.109375 8.23828125 C2.64213731 13.21345693 0.18478089 16.94953665 -2.75 21.1875 C-3.2759375 21.98091797 -3.801875 22.77433594 -4.34375 23.59179688 C-10.91876471 33.28343365 -10.91876471 33.28343365 -16.6875 34.625 C-20.94796972 33.82113779 -23.80084665 31.82335344 -27.44140625 29.53515625 C-35.44482069 24.73310758 -43.77471673 23.80768519 -53 25 C-62.64952762 27.82257288 -68.18513121 33.35792781 -73 42 C-79.03291334 53.41886546 -80.19598684 66.39358728 -82 79 C-82.11770752 79.82143494 -82.23541504 80.64286987 -82.35668945 81.48919678 C-82.75425612 84.26741845 -83.15076838 87.04578855 -83.546875 89.82421875 C-83.6819899 90.77163437 -83.8171048 91.71904999 -83.95631409 92.69517517 C-84.63995682 97.49772542 -85.31708685 102.3010448 -85.98217773 107.10620117 C-86.10824402 108.00816727 -86.2343103 108.91013336 -86.36419678 109.83943176 C-86.60368884 111.55354002 -86.84041749 113.26803724 -87.07403564 114.98295593 C-87.88732571 120.77465141 -87.88732571 120.77465141 -89 123 C-88.33097656 122.96970703 -87.66195313 122.93941406 -86.97265625 122.90820312 C-64.64307036 121.93409367 -42.34685449 121.88958225 -20 122 C-19.95609131 121.33025146 -19.91218262 120.66050293 -19.86694336 119.97045898 C-19.25526458 111.67069464 -18.15363034 103.49158764 -16.89819336 95.27026367 C-16.5594665 93.0425495 -16.23162853 90.81339812 -15.90429688 88.58398438 C-15.68815233 87.15094312 -15.47137847 85.71799662 -15.25390625 84.28515625 C-14.96495483 82.36521851 -14.96495483 82.36521851 -14.67016602 80.40649414 C-13.57633649 74.84649291 -12.37039109 71.56646859 -7.72836304 67.97952271 C-4.71917124 66.27411034 -1.92399806 66.36918029 1.48046875 66.37109375 C2.17513748 66.36868179 2.86980621 66.36626984 3.58552551 66.36378479 C5.04364777 66.36475868 6.50180912 66.37804286 7.9597168 66.40307617 C10.19251276 66.43757746 12.42138665 66.42367084 14.65429688 66.40429688 C16.07553766 66.4111911 17.49676829 66.42085966 18.91796875 66.43359375 C20.20469482 66.44447021 21.4914209 66.45534668 22.81713867 66.46655273 C26 67 26 67 27.91918945 68.72583008 C32.48593716 78.33487793 27.60515775 93.61991048 26 103.75 C25.71011294 105.62226835 25.42104393 107.49466355 25.1328125 109.3671875 C24.43129505 113.91297534 23.71873934 118.45690468 23 123 C24.19077148 122.98428955 25.38154297 122.9685791 26.60839844 122.95239258 C31.02890247 122.89806713 35.44937702 122.86364037 39.87011719 122.83520508 C41.78292809 122.82012442 43.69570446 122.7996569 45.60839844 122.77368164 C48.3588107 122.73726653 51.10876554 122.72026651 53.859375 122.70703125 C54.71368103 122.69154739 55.56798706 122.67606354 56.44818115 122.66011047 C59.97527728 122.65911211 62.3694299 122.6809127 65.55078125 124.29077148 C67.56224439 126.66311876 67.37396292 128.76166273 67.21679688 131.77539062 C66.85742969 135.46295121 66.37910124 139.09861857 65.75 142.75 C65.64042969 143.49121094 65.53085938 144.23242188 65.41796875 144.99609375 C64.89307312 148.07363971 64.26852773 150.59071176 62.546875 153.21484375 C58.61514969 155.97066962 54.88859085 155.49577689 50.203125 155.390625 C49.25435486 155.38496521 48.30558472 155.37930542 47.32806396 155.37347412 C44.30152664 155.35110609 41.27617871 155.30090858 38.25 155.25 C36.1966317 155.22993557 34.14324481 155.2116847 32.08984375 155.1953125 C27.05943844 155.15123981 22.02992079 155.08220891 17 155 C16.93148582 156.21901001 16.93148582 156.21901001 16.86158752 157.46264648 C16.30457088 166.30031761 15.28897784 174.99449054 14.04231071 183.75680542 C13.70522465 186.13022809 13.37501471 188.50452359 13.04652405 190.87915039 C12.11314022 197.61968276 11.16990481 204.35880471 10.2175293 211.09667969 C9.63117019 215.24847769 9.05426835 219.40150575 8.48288155 223.5553894 C8.26598753 225.11849515 8.04560736 226.68112194 7.82139397 228.24319458 C5.11129691 244.70011557 5.11129691 244.70011557 7 261 C17.83347079 263.94361567 26.54964324 260.27984242 36.2265625 255.359375 C39.18356235 253.91002859 40.76651895 253.38826034 44 254 C47.64085864 257.58306724 48.46004761 262.40006484 49.6875 267.1875 C50.02491211 268.40663086 50.02491211 268.40663086 50.36914062 269.65039062 C53.3102226 280.88729043 53.3102226 280.88729043 52 286 C48.01954942 291.07601687 40.77417714 292.77321167 34.875 294.625 C33.94792236 294.92422363 33.02084473 295.22344727 32.06567383 295.53173828 C14.35836755 301.15305641 -5.64403685 306.1813957 -23.35546875 297.8984375 C-31.95881309 292.89461622 -35.32854152 286.35010467 -38 277 C-39.96567627 267.8923666 -38.98022816 258.49331369 -37.8984375 249.33959961 C-37.78139465 248.31416046 -37.66435181 247.28872131 -37.54376221 246.23220825 C-37.15899014 242.87167995 -36.76705004 239.51203007 -36.375 236.15234375 C-36.10551287 233.81113202 -35.83647654 231.46986835 -35.56787109 229.1285553 C-34.86216218 222.98784736 -34.15035615 216.84786121 -33.43725586 210.70800781 C-32.58159425 203.32953888 -31.73354727 195.95019132 -30.88421631 188.57099152 C-29.59529347 177.379979 -28.29673432 166.19012251 -27 155 C-49.44 155 -71.88 155 -95 155 C-95.66 161.27 -96.32 167.54 -97 174 C-97.4768999 177.86388336 -97.96478624 181.72015414 -98.49090576 185.57684326 C-98.627222 186.59269225 -98.76353823 187.60854125 -98.90398526 188.65517354 C-99.35091005 191.9797991 -99.80183585 195.30386744 -100.25292969 198.62792969 C-100.57863402 201.04296573 -100.90415987 203.45802584 -101.22952271 205.87310791 C-102.28855218 213.72338993 -103.35407196 221.57278269 -104.421875 229.421875 C-104.51291319 230.09107377 -104.60395138 230.76027254 -104.6977483 231.44975007 C-106.51074584 244.77423978 -108.32812904 258.09813036 -110.1525383 271.42106247 C-110.55097344 274.33115549 -110.94934719 277.24125691 -111.34765625 280.15136719 C-111.4961203 281.23603299 -111.4961203 281.23603299 -111.64758363 282.34261122 C-113.25594852 294.097239 -114.8450442 305.85439249 -116.42673811 317.61263546 C-118.055987 329.72163459 -119.70390937 341.82798135 -121.36968923 353.93200994 C-122.30251009 360.7138379 -123.22696008 367.49658076 -124.13008881 374.28243256 C-124.97780468 380.65180403 -125.85051605 387.01743014 -126.7402916 393.38106537 C-127.06250623 395.71516856 -127.37626682 398.05045684 -127.68091965 400.38691711 C-128.09820864 403.57723804 -128.54579995 406.76188374 -129.00115967 409.94696045 C-129.11461062 410.87078357 -129.22806158 411.79460668 -129.34495044 412.74642444 C-130.24709251 418.7477571 -132.09569687 423.18025466 -137 427 C-140.08124321 427.67472479 -142.08459282 427.90150846 -145.13671875 427.7890625 C-145.89797562 427.78627289 -146.65923248 427.78348328 -147.44355774 427.78060913 C-149.0430738 427.76790666 -150.64253594 427.7383747 -152.24145508 427.69287109 C-154.69135333 427.62489308 -157.13713213 427.61086744 -159.58789062 427.60546875 C-161.14587481 427.5864759 -162.70382558 427.56444624 -164.26171875 427.5390625 C-164.99299484 427.53258698 -165.72427094 427.52611145 -166.47770691 427.5194397 C-171.51729289 427.35394841 -171.51729289 427.35394841 -173.92114258 425.59130859 C-180.07873143 416.50889987 -173.10350539 394.49144616 -171.67358398 384.20776367 C-171.32827942 381.70346093 -170.98331788 379.19911087 -170.63867188 376.69471741 C-169.89889358 371.32473798 -169.15675505 365.9550934 -168.41241264 360.58574486 C-167.33625342 352.82278963 -166.26443834 345.05923941 -165.1936462 337.29554228 C-163.45578901 324.69619999 -161.71447162 312.09733851 -159.97094727 299.4987793 C-158.27836076 287.26823757 -156.58742314 275.03746973 -154.89868164 262.80639648 C-154.79439952 262.05111501 -154.6901174 261.29583354 -154.58267521 260.51766475 C-154.05947656 256.7282326 -153.53631009 252.93879601 -153.01315963 249.1493572 C-148.68042968 217.76554761 -144.34201299 186.38252665 -140 155 C-140.64549805 155.01047363 -141.29099609 155.02094727 -141.95605469 155.03173828 C-144.88733002 155.07337272 -147.81854304 155.09934975 -150.75 155.125 C-151.76578125 155.14175781 -152.7815625 155.15851563 -153.828125 155.17578125 C-154.8078125 155.18222656 -155.7875 155.18867188 -156.796875 155.1953125 C-157.69760742 155.20578613 -158.59833984 155.21625977 -159.52636719 155.22705078 C-162.19740367 154.98188063 -163.78620013 154.5075608 -166 153 C-167.62795039 147.22002936 -166.60160253 142.105114 -165.375 136.375 C-165.22160156 135.54226562 -165.06820313 134.70953125 -164.91015625 133.8515625 C-164.11913795 130.0595053 -163.15804034 127.25792447 -161.12109375 123.93359375 C-156.18707365 120.87684788 -151.35902847 121.47204158 -145.6875 121.6875 C-144.00430664 121.72133789 -144.00430664 121.72133789 -142.28710938 121.75585938 C-139.52337464 121.81466224 -136.76237446 121.89679599 -134 122 C-133.96624268 121.33709961 -133.93248535 120.67419922 -133.89770508 119.99121094 C-133.2259257 109.39756845 -131.69054012 98.94220348 -130.15356445 88.4453125 C-129.69071097 85.27201422 -129.24051 82.09708953 -128.79101562 78.921875 C-124.38428765 48.31358209 -117.68957757 18.37434389 -92.25 -1.75 C-64.76636084 -21.49078651 -26.60742986 -21.15771531 0 0 Z " fill="#2D2D2C" transform="translate(2125,16)"/>
<path d="M0 0 C0.71590805 -0.00241196 1.4318161 -0.00482391 2.16941833 -0.00730896 C3.67639734 -0.00633321 5.18341339 0.00699583 6.69018555 0.03198242 C8.99326432 0.06636401 11.29251711 0.05261545 13.59570312 0.03320312 C15.06381836 0.04010048 16.53192374 0.04977188 18 0.0625 C18.6855043 0.05754013 19.37100861 0.05258026 20.07728577 0.04747009 C23.17400787 0.12359142 25.22688367 0.50537164 27.89819336 2.10180664 C31.82955017 8.57238612 28.84635718 18.9618621 27.79711914 26.09350586 C27.62316116 27.31080383 27.44920319 28.52810181 27.26997375 29.7822876 C26.79526558 33.09447972 26.31494243 36.4057591 25.83180165 39.71672511 C25.32628534 43.18917651 24.82747285 46.66259149 24.32774353 50.13587952 C23.48888059 55.95914245 22.64508122 61.78167302 21.7980957 67.60375977 C20.81857904 74.33714296 19.84600999 81.07150095 18.87730795 87.80644792 C17.94414469 94.29373481 17.00701431 100.78044184 16.06774712 107.26684761 C15.66830776 110.02541619 15.27010223 112.78415872 14.87285042 115.54304314 C14.31920897 119.38599257 13.75967916 123.2280716 13.19946289 127.07006836 C13.03474487 128.21758072 12.87002686 129.36509308 12.70031738 130.54737854 C12.54748795 131.58889069 12.39465851 132.63040283 12.23719788 133.70347595 C12.10538148 134.61173598 11.97356508 135.51999601 11.83775425 136.45577908 C11.43359375 138.62890625 11.43359375 138.62890625 10.43359375 140.62890625 C11.779375 139.75878906 11.779375 139.75878906 13.15234375 138.87109375 C32.06813061 126.92643765 52.23919414 121.02000278 74.7734375 125.3125 C82.05649307 127.25196563 88.26591503 130.32807281 94.43359375 134.62890625 C95.32046875 135.20640625 96.20734375 135.78390625 97.12109375 136.37890625 C109.63620237 148.55576869 114.64744998 165.81875903 114.99710083 182.88595581 C114.99273514 184.52602097 114.99273514 184.52602097 114.98828125 186.19921875 C114.98545135 187.4130423 114.98262146 188.62686584 114.97970581 189.87747192 C114.63566329 208.23303604 111.63449975 226.40753229 108.98742676 244.54205322 C108.40930044 248.53504151 107.85020607 252.53059632 107.29167366 256.52636528 C106.61948902 261.32978218 105.93739681 266.13177454 105.25390625 270.93359375 C105.12636082 271.83434505 104.99881538 272.73509636 104.86740494 273.66314316 C104.50442493 276.21228265 104.13449241 278.76031034 103.76220703 281.30810547 C103.60467957 282.422286 103.60467957 282.422286 103.44396973 283.55897522 C101.50618105 296.63232232 101.50618105 296.63232232 96.43359375 300.62890625 C91.34421637 302.32536538 85.93644193 301.89360485 80.60961914 301.92407227 C79.20229048 301.93561441 77.79500636 301.95610189 76.38793945 301.9855957 C74.35207451 302.02826282 72.31750642 302.04443581 70.28125 302.0546875 C68.45605835 302.07656128 68.45605835 302.07656128 66.59399414 302.09887695 C63.43359375 301.62890625 63.43359375 301.62890625 61.06811523 299.97729492 C57.4986393 294.84887237 58.51294322 289.27194907 59.42163086 283.40234375 C59.59697609 282.19582657 59.59697609 282.19582657 59.77586365 280.9649353 C60.0300478 279.2227493 60.28831294 277.48115484 60.55021477 275.7401123 C60.96715368 272.96249451 61.37143989 270.18329362 61.77235413 267.40332031 C62.91427526 259.50028492 64.07752238 251.60045047 65.25170898 243.70214844 C65.9706485 238.8600555 66.67386268 234.01586684 67.36847115 229.17022705 C67.63321603 227.34541398 67.90371304 225.52142374 68.18067741 223.69842529 C69.7003374 213.69094492 70.67251312 203.87464676 70.70922852 193.7421875 C70.71387839 192.82802063 70.71852827 191.91385376 70.72331905 190.97198486 C70.64467089 182.83172405 68.89547626 176.61885377 64.62109375 169.69140625 C58.68795589 164.09730484 52.33430897 162.23017957 44.3359375 162.359375 C29.625888 163.72544958 18.62271073 171.98956084 8.4921875 182.13671875 C3.766563 187.85768351 2.71911356 193.53158437 1.76367188 200.66992188 C1.62174911 201.66577805 1.47982635 202.66163422 1.33360291 203.68766785 C1.02781626 205.84281711 0.72684107 207.99865339 0.43016052 210.15507507 C-0.03989408 213.56957202 -0.52304243 216.98198941 -1.00964355 220.39416504 C-2.04022202 227.6374586 -3.05448649 234.88298561 -4.06640625 242.12890625 C-5.2392231 250.52694149 -6.41872787 258.92392048 -7.61585999 267.31852722 C-8.09127484 270.67756844 -8.55409289 274.03819222 -9.01647949 277.39904785 C-9.30919642 279.46208323 -9.60250006 281.52503547 -9.89648438 283.58789062 C-10.02124649 284.52001877 -10.14600861 285.45214691 -10.27455139 286.41252136 C-11.89557212 297.55677167 -11.89557212 297.55677167 -16.31445312 300.98510742 C-21.32706664 302.41813668 -26.71274258 301.96045621 -31.89306641 301.94458008 C-34.05942936 301.94141644 -36.22443035 301.96490883 -38.390625 301.99023438 C-39.7721337 301.99250725 -41.15364606 301.99321092 -42.53515625 301.9921875 C-43.78748047 301.99516846 -45.03980469 301.99814941 -46.33007812 302.0012207 C-51.34185373 301.42465479 -51.34185373 301.42465479 -53.56640625 298.62890625 C-54.78699043 291.62199567 -54.29239835 285.51803513 -53.22625732 278.5246582 C-53.0699699 277.43865452 -52.91368248 276.35265083 -52.75265908 275.23373795 C-52.22834039 271.60989896 -51.68790655 267.98865369 -51.14746094 264.3671875 C-50.76727831 261.76307523 -50.388087 259.15881807 -50.0098114 256.5544281 C-49.08819017 250.22188175 -48.15459724 243.8911563 -47.21702304 237.56095451 C-46.12351502 230.17439913 -45.04248169 222.78603433 -43.96205571 215.39755607 C-42.0317883 202.20005748 -40.09104896 189.00412072 -38.14404297 175.80908203 C-36.25954846 163.03757903 -34.38115973 150.26520012 -32.51025391 137.49169922 C-32.39519456 136.70614776 -32.28013522 135.92059631 -32.16158924 135.11124027 C-31.69895275 131.95255622 -31.23632994 128.79387016 -30.77373235 125.63518041 C-28.87712894 112.68601933 -26.9757596 99.73755744 -25.07360172 86.78921127 C-24.64181823 83.8499277 -24.21021078 80.91061836 -23.77875423 77.97128677 C-22.64365858 70.23897236 -21.50695728 62.5068993 -20.36580172 54.77547663 C-19.89440446 51.58165821 -19.42395322 48.38770632 -18.95512199 45.19351006 C-17.98853152 38.61038233 -17.00542614 32.03028814 -15.99354839 25.45396423 C-15.58817499 22.77288162 -15.20828151 20.08922756 -14.83203888 17.40393066 C-14.60012937 15.86839751 -14.36716019 14.33302382 -14.13287354 12.79785156 C-13.94796482 11.51533508 -13.76305611 10.2328186 -13.5725441 8.91143799 C-11.37943197 1.7563944 -7.02268087 -0.13622661 0 0 Z " fill="#2D2D2C" transform="translate(1745.56640625,8.37109375)"/>
<path d="M0 0 C1.42012445 1.20101954 2.81470267 2.43265783 4.1875 3.6875 C5.50814453 4.87085938 5.50814453 4.87085938 6.85546875 6.078125 C23.2888826 21.58220096 34.08908475 44.14328388 35.36450195 66.83691406 C35.91975858 97.33842168 35.91975858 97.33842168 31.1875 111.6875 C30.87401611 112.66130615 30.87401611 112.66130615 30.55419922 113.65478516 C23.17229787 135.83366629 8.21526888 153.17255689 -12.5 163.9375 C-34.83225042 175.06887308 -60.35376524 175.05029993 -83.75390625 167.39453125 C-87.53106788 165.9463166 -91.01512944 164.00990193 -94.56616211 162.08081055 C-95.16788994 161.754645 -95.76961777 161.42847946 -96.38957977 161.09243011 C-97.86480351 160.2924755 -99.33877823 159.49021827 -100.8125 158.6875 C-100.81488835 159.40533535 -100.81727671 160.1231707 -100.81973743 160.86275864 C-100.87885153 178.32242302 -100.95437845 195.78193891 -101.04821491 213.24145126 C-101.09319684 221.68471784 -101.13260592 230.12794202 -101.15893555 238.57128906 C-101.18189628 245.92978351 -101.21527261 253.28814403 -101.26120156 260.6465323 C-101.28515991 264.54342534 -101.3038715 268.44018553 -101.31011391 272.33715057 C-101.31615305 276.00454472 -101.33610997 279.67159882 -101.36677551 283.33886719 C-101.37977261 285.32761686 -101.3779826 287.3164459 -101.3757782 289.30523682 C-101.38831635 290.48871704 -101.40085449 291.67219727 -101.41377258 292.89154053 C-101.41838155 293.9202615 -101.42299051 294.94898247 -101.42773914 296.0088768 C-101.87327153 299.11057844 -102.59038657 300.49574982 -104.8125 302.6875 C-107.47801876 303.06871721 -109.66092621 303.20328456 -112.3125 303.125 C-112.98925781 303.13208984 -113.66601562 303.13917969 -114.36328125 303.14648438 C-119.25564495 303.08376176 -119.25564495 303.08376176 -121.50570166 301.48260641 C-123.26609222 299.06441511 -123.1884628 297.51154525 -123.19002342 294.53220367 C-123.19784666 293.45867818 -123.20566991 292.38515269 -123.21373022 291.27909613 C-123.20703805 290.09535988 -123.20034589 288.91162364 -123.19345093 287.6920166 C-123.1981309 286.43791945 -123.20281087 285.1838223 -123.20763266 283.8917222 C-123.2201936 280.40392755 -123.21394935 276.91637814 -123.20467401 273.42858243 C-123.19790458 269.66983428 -123.20835424 265.9111292 -123.21661377 262.15238953 C-123.2299759 254.78633823 -123.22706236 247.42037848 -123.21837585 240.05432355 C-123.21160944 234.06947729 -123.21067805 228.08465673 -123.2139473 222.09980774 C-123.214407 221.24904448 -123.21486669 220.39828121 -123.21534032 219.52173725 C-123.21629947 217.79360004 -123.21727211 216.06546283 -123.2182581 214.33732563 C-123.22681925 198.12045516 -123.2169665 181.9036355 -123.200857 165.68677336 C-123.18745316 151.76234819 -123.18978104 137.83799804 -123.20361328 123.91357422 C-123.2196563 107.75599414 -123.22599521 91.59845864 -123.21677649 75.44087172 C-123.21582081 73.71897857 -123.2148777 71.99708542 -123.2139473 70.27519226 C-123.21348447 69.42791751 -123.21302164 68.58064276 -123.21254479 67.70769301 C-123.20995106 61.72783205 -123.21433413 55.74799929 -123.22138596 49.7681427 C-123.22978698 42.48383862 -123.22755038 35.19963156 -123.21154372 27.91533864 C-123.20364207 24.19650246 -123.20060142 20.47782824 -123.21049118 16.75899315 C-123.22103477 12.73351465 -123.20847294 8.7084475 -123.19345093 4.6829834 C-123.20014309 3.49924716 -123.20683526 2.31551091 -123.21373022 1.09590387 C-123.20590697 0.02237838 -123.19808373 -1.05114711 -123.19002342 -2.15720367 C-123.18953637 -3.08703143 -123.18904931 -4.01685918 -123.18854749 -4.97486353 C-122.8125 -7.3125 -122.8125 -7.3125 -121.48055518 -9.11419821 C-118.84183667 -11.00980763 -116.43651774 -10.6337071 -113.25 -10.5625 C-112.09371094 -10.54703125 -110.93742187 -10.5315625 -109.74609375 -10.515625 C-106.8125 -10.3125 -106.8125 -10.3125 -104.8125 -9.3125 C-104.43359375 -7.31640625 -104.43359375 -7.31640625 -104.25 -4.875 C-104.0063825 -1.46621795 -104.0063825 -1.46621795 -102.8125 1.6875 C-102.33683594 1.33558594 -101.86117188 0.98367187 -101.37109375 0.62109375 C-71.26599667 -20.61325649 -30.09275344 -22.31476904 0 0 Z M-99.42630386 24.55029678 C-101.02170575 27.0100483 -101.20069842 28.31057029 -101.23382568 31.21478271 C-101.25095612 32.11744873 -101.26808655 33.02011475 -101.28573608 33.95013428 C-101.28908966 34.93306458 -101.29244324 35.91599487 -101.29589844 36.92871094 C-101.31079315 37.96983032 -101.32568787 39.01094971 -101.34103394 40.08361816 C-101.38486747 43.5297642 -101.40529908 46.97549592 -101.421875 50.421875 C-101.43913292 52.81837983 -101.45640608 55.21488455 -101.47369385 57.61138916 C-101.50521546 62.63840667 -101.52274845 67.66528038 -101.53320312 72.69238281 C-101.54965079 79.1268712 -101.62171515 85.55945273 -101.70711899 91.99334335 C-101.7630605 96.9451447 -101.77861801 101.89648878 -101.78321075 106.84857941 C-101.79227935 109.22007923 -101.81632916 111.59157169 -101.8557663 113.96276093 C-101.90709227 117.28620785 -101.90128446 120.60502572 -101.88183594 123.92871094 C-101.90948029 124.90354431 -101.93712463 125.87837769 -101.96560669 126.88275146 C-101.8873886 131.16150279 -101.63435471 133.70060212 -98.8406601 137.05532074 C-96.57903021 139.091743 -94.28988798 140.92256965 -91.8125 142.6875 C-90.84183594 143.39261719 -89.87117188 144.09773437 -88.87109375 144.82421875 C-72.43319796 154.54976961 -54.06081594 158.13670462 -35.28759766 153.34643555 C-18.1065939 148.15815468 -4.51956516 136.37030144 4.4375 120.984375 C16.06873837 99.07195272 18.70978947 74.47848176 11.78613281 50.61962891 C6.44175433 33.37027681 -4.06963794 17.92582624 -19.8125 8.6875 C-47.04237272 -5.61198623 -79.3386404 1.36331865 -99.42630386 24.55029678 Z " fill="#2D2D2C" transform="translate(1497.8125,141.3125)"/>
<path d="M0 0 C1.13308594 0.38542969 2.26617188 0.77085937 3.43359375 1.16796875 C8.97499674 3.26379926 15.65805832 5.81057647 19 11 C20.05101312 16.92630087 17.16451647 21.16532312 14.3125 26.125 C13.87744141 26.92292969 13.44238281 27.72085938 12.99414062 28.54296875 C10.54228049 32.89456645 8.36348401 36.32421063 4 39 C-0.71189913 39.09423798 -3.959614 37.62640215 -8.1875 35.625 C-19.05306458 30.51788858 -31.06374842 27.81297001 -42.96875 30.7265625 C-47.82968451 32.48507704 -51.52366611 34.26266561 -54 39 C-55.43293207 44.46305353 -55.37933672 48.13868821 -52.5234375 53.07421875 C-47.10231651 59.92707169 -37.98866924 63.77511264 -30.53808594 68.0949707 C-12.90666244 78.41366992 4.63898375 90.65158779 11 111 C14.59261009 125.03513008 12.10191237 140.96627227 4.84765625 153.3359375 C-5.13433742 167.72857954 -20.27322908 175.13191698 -37.06591797 178.40234375 C-63.40682195 182.85820586 -88.18020383 178.70334494 -111 165 C-112.16789062 164.35417969 -112.16789062 164.35417969 -113.359375 163.6953125 C-115 162 -115 162 -116.109375 158.92578125 C-115.95072044 153.23121565 -113.38080186 149.81610594 -110.25 145.1875 C-109.69828125 144.32962891 -109.1465625 143.47175781 -108.578125 142.58789062 C-104.47138931 136.31425954 -104.47138931 136.31425954 -101 134 C-94.85701486 132.99706365 -91.7010863 135.20508868 -86.7578125 138.40234375 C-75.42085849 144.97006923 -59.87175186 147.41542865 -47.0625 144.28125 C-41.9816198 142.15277316 -37.52387005 139.0477401 -35 134 C-34.49230437 128.90639791 -34.33403108 124.44293266 -36.5 119.75 C-42.9128086 112.69591054 -50.17037096 107.83600473 -58.375 103.0625 C-66.10874943 98.55794806 -73.12663225 93.73421888 -80 88 C-80.80147461 87.36473389 -81.60294922 86.72946777 -82.42871094 86.07495117 C-91.34594136 78.9707549 -99.53527588 67.48406038 -101 56 C-102.24505908 41.3177682 -100.65754933 28.41474483 -91.25390625 16.5 C-70.11662615 -6.94516337 -28.65802018 -9.91884126 0 0 Z " fill="#2D2D2C" transform="translate(1665,130)"/>
<path d="M0 0 C1.57394531 -0.05607422 1.57394531 -0.05607422 3.1796875 -0.11328125 C6.898331 0.42429453 7.8213792 1.39270395 10.125 4.3125 C10.63280869 7.03797531 10.63280869 7.03797531 10.64398193 10.22235107 C10.65789474 11.43107376 10.67180756 12.63979645 10.68614197 13.88514709 C10.68142908 15.22128431 10.67633514 16.55742022 10.67089844 17.89355469 C10.67963411 19.30300538 10.69011988 20.71244616 10.70222473 22.12187195 C10.73010661 25.94597207 10.73348895 29.76974895 10.73250484 33.59393597 C10.7356321 37.59120121 10.76124635 41.58832046 10.78448486 45.58551025 C10.8250629 53.15376731 10.84538977 60.72193816 10.85845876 68.29028726 C10.87432273 76.90698026 10.91273577 85.52352644 10.95305204 94.14013433 C11.03547562 111.86420982 11.08955233 129.58827146 11.125 147.3125 C11.7325412 146.83338165 12.3400824 146.35426331 12.96603394 145.86062622 C13.76856598 145.23131195 14.57109802 144.60199768 15.39794922 143.95361328 C16.58769852 143.01837326 16.58769852 143.01837326 17.80148315 142.0642395 C34.27156333 129.64716145 54.66210343 124.90511378 74.9375 125 C76.7947168 125.00737183 76.7947168 125.00737183 78.68945312 125.01489258 C98.08925077 125.26416515 115.05472568 130.48467915 129.3125 144.0625 C145.21041586 160.62487984 148.21412636 183.77186724 148.31787109 205.84521484 C148.33013733 207.32787338 148.33013733 207.32787338 148.34265137 208.84048462 C148.36720156 212.06812974 148.38392963 215.2957323 148.3984375 218.5234375 C148.40376118 219.63243031 148.40908485 220.74142311 148.41456985 221.88402176 C148.44115086 227.73826655 148.46058531 233.59249098 148.47509766 239.44677734 C148.4885018 244.28485748 148.51649455 249.12252235 148.55712891 253.96044922 C148.60633638 259.8216511 148.63120104 265.68247321 148.63832474 271.54387283 C148.64504368 273.77265208 148.66028229 276.0014226 148.68421555 278.23008347 C148.71573921 281.33922882 148.71592464 284.44689 148.70849609 287.55615234 C148.72490143 288.4746698 148.74130676 289.39318726 148.75820923 290.33953857 C148.71434998 294.81705847 148.5764011 296.71900414 145.78799438 300.38516235 C142.47970609 302.77953037 140.61298093 302.92514373 136.5625 302.8125 C134.88994141 302.79703125 134.88994141 302.79703125 133.18359375 302.78125 C129.88622954 302.27590683 128.46701875 301.64900812 126.125 299.3125 C125.19418424 296.52005273 124.99839008 294.84358522 124.99369812 291.95930481 C124.98768585 290.6247097 124.98768585 290.6247097 124.98155212 289.26315308 C124.9823452 287.80221725 124.9823452 287.80221725 124.9831543 286.31176758 C124.97967987 285.28364456 124.97620544 284.25552155 124.97262573 283.19624329 C124.96526495 280.95856583 124.95992129 278.72088104 124.95633507 276.48319435 C124.94916213 272.92897796 124.93348502 269.37489903 124.91499329 265.82072449 C124.86259278 255.71294142 124.81464312 245.60523014 124.79907227 235.49731445 C124.78892376 229.31450978 124.75941715 223.13204625 124.71775246 216.94937706 C124.70552532 214.60415937 124.70030586 212.25889328 124.70255089 209.91364479 C124.71705466 189.79937149 123.56186967 170.63698766 109.1015625 155.09375 C97.03272499 144.21748537 82.15104597 142.54111463 66.61865234 143.12890625 C56.23623806 143.89330566 46.27236579 147.47455987 37.125 152.3125 C36.16207031 152.80363281 35.19914063 153.29476562 34.20703125 153.80078125 C25.21806867 158.67319434 18.29898044 165.13851956 11.125 172.3125 C10.82190174 174.62822666 10.82190174 174.62822666 10.8734436 177.35423279 C10.86536934 178.95474991 10.86536934 178.95474991 10.85713196 180.58760071 C10.86125595 181.76324081 10.86537994 182.93888092 10.86962891 184.15014648 C10.86600845 185.38432312 10.862388 186.61849976 10.85865784 187.89007568 C10.85174902 190.57752153 10.84837961 193.26471721 10.85060501 195.95214653 C10.85343302 200.20002444 10.83910567 204.44773533 10.82162476 208.6955719 C10.77454787 220.77561941 10.75065277 232.85565588 10.74414062 244.93579102 C10.74039334 251.60541377 10.72239073 258.27484796 10.68904626 264.94438988 C10.66879366 269.16864055 10.66648043 273.39240617 10.67732644 277.61668575 C10.68053977 280.85968589 10.65785558 284.10252232 10.63916016 287.34545898 C10.64733261 288.51907486 10.65550507 289.69269073 10.66392517 290.90187073 C10.65290268 291.97170197 10.64188019 293.0415332 10.63052368 294.14378357 C10.62888938 295.54055155 10.62888938 295.54055155 10.62722206 296.96553707 C10.125 299.3125 10.125 299.3125 8.28676414 301.11064243 C5.31762239 302.76137084 3.00374093 302.71074822 -0.375 302.6875 C-1.4990625 302.69523437 -2.623125 302.70296875 -3.78125 302.7109375 C-7.22626082 302.26726186 -8.41398205 301.70343949 -10.875 299.3125 C-11.37524599 297.05180788 -11.37524599 297.05180788 -11.37557125 294.34461212 C-11.38538554 293.31288738 -11.39519983 292.28116263 -11.40531152 291.2181735 C-11.39090402 289.51260621 -11.39090402 289.51260621 -11.37620544 287.77258301 C-11.38173984 286.56748848 -11.38727424 285.36239396 -11.39297634 284.12078142 C-11.40426126 280.76956381 -11.39752351 277.41924767 -11.38323963 274.06809831 C-11.37215957 270.45658408 -11.38406255 266.84513707 -11.39308167 263.23362732 C-11.40703649 256.15630478 -11.39944151 249.0791603 -11.38440608 242.00184619 C-11.36757203 233.76534118 -11.37075294 225.52888084 -11.37450016 217.29236394 C-11.38038285 202.59933287 -11.36619119 187.90638742 -11.34155273 173.21337891 C-11.31763075 158.94609365 -11.31054794 144.6789228 -11.32104492 130.41162109 C-11.33244652 114.88688828 -11.33439359 99.36220842 -11.31994683 83.83747625 C-11.31842094 82.1829869 -11.31690058 80.52849754 -11.31538582 78.87400818 C-11.314628 78.05990275 -11.31387019 77.24579732 -11.31308941 76.40702203 C-11.30834071 70.66160391 -11.31020216 64.91620939 -11.31445122 59.17079163 C-11.31937087 52.17194208 -11.31342497 45.17320083 -11.29355692 38.17437613 C-11.28366489 34.60136141 -11.27860022 31.02851182 -11.28644943 27.4554882 C-11.29477254 23.58769221 -11.27996503 19.72018812 -11.26268005 15.85241699 C-11.2686901 14.71537213 -11.27470014 13.57832726 -11.28089231 12.4068265 C-11.27245237 11.37510175 -11.26401243 10.34337701 -11.25531673 9.28038788 C-11.2542876 8.38701328 -11.25325848 7.49363868 -11.25219816 6.57319212 C-10.7964336 3.84162165 -10.02805191 2.99597816 -7.875 1.3125 C-5.18932703 -0.03033649 -2.99753147 0.06962481 0 0 Z " fill="#2D2D2C" transform="translate(977.875,7.6875)"/>
<path d="M0 0 C2.48652919 1.93227994 4.84557775 3.94206279 7.18359375 6.05078125 C7.86808594 6.64246094 8.55257813 7.23414063 9.2578125 7.84375 C27.15423303 24.33377206 33.77923299 48.79842077 35.40625 72.26171875 C35.58560659 77.95434085 35.09044027 82.09837607 32.18359375 87.05078125 C29.02690813 88.10300979 26.82200964 88.17400275 23.50788879 88.17103577 C21.73473045 88.17309776 21.73473045 88.17309776 19.92575073 88.17520142 C18.62743317 88.17160614 17.3291156 88.16801086 15.99145508 88.16430664 C14.61171979 88.16402459 13.23198435 88.16418284 11.85224915 88.16474915 C8.10459932 88.16503644 4.3569814 88.15915062 0.609339 88.15217519 C-3.30644428 88.14593041 -7.22222826 88.14533696 -11.13801575 88.14414978 C-18.55402646 88.14103979 -25.97002245 88.13283086 -33.38602668 88.12280029 C-41.82849708 88.11162886 -50.27096817 88.1061261 -58.71344411 88.10110486 C-76.08110668 88.09064798 -93.44875491 88.07305495 -110.81640625 88.05078125 C-110.21415766 91.06277982 -109.60359908 94.07269908 -108.98828125 97.08203125 C-108.73667236 98.34708496 -108.73667236 98.34708496 -108.47998047 99.63769531 C-104.97844862 116.63574196 -96.10260555 131.96802354 -81.84375 142.1796875 C-65.26413639 152.90999762 -45.91168649 155.90484126 -26.46484375 152.40234375 C-14.69597727 149.45382688 -2.33978592 144.62808148 7.2890625 137.1171875 C9.81700681 135.69424153 11.32430418 135.60848489 14.18359375 136.05078125 C18.04573962 138.99408003 20.82019522 142.5063375 21.93359375 147.23828125 C20.65543758 152.03136689 17.12578345 154.4349167 13.08203125 157.078125 C-11.65044309 170.90265321 -42.77321646 176.62725151 -70.34765625 168.828125 C-91.65479648 162.34558087 -109.08692614 149.86916577 -120.00390625 130.19140625 C-128.24008061 114.70538097 -132.22007596 98.90693886 -132.12890625 81.36328125 C-132.1232666 80.22133301 -132.11762695 79.07938477 -132.11181641 77.90283203 C-131.73658447 51.6551722 -122.43535048 28.51193782 -103.81640625 10.05078125 C-102.66398437 8.84808594 -102.66398437 8.84808594 -101.48828125 7.62109375 C-75.28514932 -18.13640668 -29.71271833 -20.56400339 0 0 Z M-90.81640625 24.05078125 C-91.45449219 24.66566406 -92.09257813 25.28054687 -92.75 25.9140625 C-104.72705736 38.37126916 -108.3083296 55.46193815 -109.81640625 72.05078125 C-68.56640625 72.05078125 -27.31640625 72.05078125 15.18359375 72.05078125 C13.69342817 51.18846314 9.53972998 33.96501428 -5.81640625 19.05078125 C-6.368125 18.4784375 -6.91984375 17.90609375 -7.48828125 17.31640625 C-18.95623813 6.30262588 -34.63777518 4.43575613 -49.7265625 4.73828125 C-66.22590485 5.47913105 -79.2933556 12.56726079 -90.81640625 24.05078125 Z " fill="#2D2D2C" transform="translate(1273.81640625,137.94921875)"/>
<path d="M0 0 C1.14825256 -0.0099852 1.14825256 -0.0099852 2.31970215 -0.02017212 C3.93690591 -0.03028943 5.55415134 -0.03498942 7.17138672 -0.03466797 C9.64750634 -0.03904704 12.12185134 -0.07538879 14.59765625 -0.11328125 C16.16926474 -0.11914845 17.74088169 -0.12311849 19.3125 -0.125 C20.05318726 -0.13937103 20.79387451 -0.15374207 21.55700684 -0.16854858 C24.6428414 -0.14106236 26.65899282 -0.04603312 29.14648438 1.86474609 C32.25342154 9.46832879 29.31663994 19.44295431 28.20019531 27.28564453 C27.98950877 28.79425145 27.77926471 30.30292022 27.56942749 31.81164551 C27.00039979 35.89075833 26.42407281 39.96880589 25.84553623 44.04657984 C25.48395838 46.59668829 25.12376041 49.14698793 24.76399994 51.69735336 C23.50772672 60.60104461 22.24478255 69.50376471 20.9765625 78.40576172 C19.79583579 86.69509568 18.63096493 94.98655684 17.47314763 103.27911866 C16.47678353 110.40953961 15.46857592 117.53822263 14.45132899 124.66569412 C13.84466641 128.91810554 13.2429572 133.1710763 12.65348053 137.42590714 C12.0990482 141.42522818 11.52991404 145.42218396 10.94951248 149.41781616 C10.73938994 150.88196569 10.53450556 152.34687826 10.33533096 153.81255722 C10.06201997 155.81764316 9.7677197 157.81983433 9.47247314 159.82180786 C9.23465055 161.50139934 9.23465055 161.50139934 8.99202347 163.21492195 C7.85351616 167.46643164 5.91139819 171.02123305 2.34570312 173.69213867 C-2.62695637 175.1543268 -8.02054298 174.66739412 -13.17041016 174.65161133 C-15.33677311 174.64844769 -17.5017741 174.67194008 -19.66796875 174.69726562 C-21.04947745 174.6995385 -22.43098981 174.70024217 -23.8125 174.69921875 C-25.06482422 174.70219971 -26.31714844 174.70518066 -27.60742188 174.70825195 C-31.1709349 174.29829741 -32.56673847 174.10993215 -34.84375 171.3359375 C-36.59524377 163.56568575 -35.11482412 156.07690266 -33.98535156 148.29443359 C-33.77275516 146.77603543 -33.56104795 145.25751255 -33.35015869 143.73887634 C-32.77704343 139.63228245 -32.19077983 135.52766752 -31.6014986 131.42336607 C-30.98536072 127.12025941 -30.37946434 122.81570857 -29.77191162 118.51138306 C-28.75032987 111.28612451 -27.71994158 104.06216166 -26.68457031 96.83886719 C-25.48871284 88.49498391 -24.30801895 80.14905839 -23.13514733 71.80191553 C-22.12633041 64.62523708 -21.10929288 57.44975853 -20.08541083 50.27521384 C-19.47451315 45.994465 -18.86645056 41.71336582 -18.26581573 37.43116379 C-17.7007969 33.40619231 -17.12545505 29.38282806 -16.54219818 25.36046028 C-16.3301619 23.88639376 -16.12168587 22.41180995 -15.91708374 20.93669319 C-15.63663817 18.91909082 -15.34187051 16.90349483 -15.04644775 14.88803101 C-14.88567875 13.76092901 -14.72490974 12.63382702 -14.55926895 11.47257042 C-12.49175127 2.40915705 -8.93805188 0.02685742 0 0 Z " fill="#2D2D2C" transform="translate(1909.84375,135.6640625)"/>
<path d="M0 0 C3.63 0 7.26 0 11 0 C11 192.39 11 384.78 11 583 C7.37 583 3.74 583 0 583 C0 390.61 0 198.22 0 0 Z " fill="#2C2C2C" transform="translate(774,0)"/>
<path d="M0 0 C1.051875 -0.00773438 2.10375 -0.01546875 3.1875 -0.0234375 C6.40596972 0.43251238 7.08358942 0.833354 9 3.375 C9.37604749 5.64851618 9.37604749 5.64851618 9.37752342 8.37412262 C9.38534666 9.41281415 9.39316991 10.45150569 9.40123022 11.52167273 C9.39453805 12.66649949 9.38784589 13.81132625 9.38095093 14.99084473 C9.3856309 16.20410635 9.39031087 17.41736798 9.39513266 18.66739511 C9.40505196 22.04126882 9.40145027 25.41464391 9.39217401 28.78848767 C9.38540392 32.42453586 9.39585457 36.06053955 9.40411377 39.69657898 C9.41747519 46.82199658 9.41456268 53.94731955 9.40587585 61.07274091 C9.39910916 66.86212593 9.39817817 72.65148436 9.4014473 78.44087219 C9.401907 79.26388184 9.40236669 80.08689149 9.40284032 80.93484083 C9.40379947 82.60660804 9.40477211 84.27837525 9.4057581 85.95014244 C9.41431905 101.63766235 9.40446682 117.32512972 9.388357 133.01264101 C9.37495317 146.48224923 9.37728107 159.9517799 9.39111328 173.42138672 C9.40715667 189.05159009 9.41349501 204.68174738 9.40427649 220.31195784 C9.40332081 221.97768115 9.4023777 223.64340448 9.4014473 225.30912781 C9.40098447 226.12876146 9.40052164 226.94839511 9.40004479 227.79286614 C9.39745117 233.57736083 9.40183389 239.36182636 9.40888596 245.14631653 C9.41728739 252.19273611 9.41504952 259.2390554 9.39904372 266.28546345 C9.39114262 269.88278547 9.38810048 273.47994008 9.39799118 277.07726097 C9.40853608 280.97132105 9.39597163 284.86510514 9.38095093 288.75915527 C9.38764309 289.90398203 9.39433526 291.04880879 9.40123022 292.22832727 C9.39340697 293.26701881 9.38558373 294.30571034 9.37752342 295.37587738 C9.37703637 296.27532751 9.37654931 297.17477763 9.37604749 298.10148382 C8.92193964 300.84693902 8.21562044 301.73549942 6 303.375 C3.40625 303.7734375 3.40625 303.7734375 0.5 303.75 C-0.4590625 303.75773437 -1.418125 303.76546875 -2.40625 303.7734375 C-5.47657965 303.30179047 -6.16578203 302.83162148 -8 300.375 C-8.38476086 297.85293961 -8.38476086 297.85293961 -8.39872742 294.77252197 C-8.41126682 293.60069146 -8.42380623 292.42886095 -8.43672562 291.22152042 C-8.43528927 289.92928782 -8.43385292 288.63705523 -8.43237305 287.30566406 C-8.44139023 285.9255788 -8.45170848 284.54550153 -8.4632225 283.16543484 C-8.49101007 279.37441248 -8.50008352 275.5835398 -8.50606036 271.79242873 C-8.51563207 267.72954691 -8.54222996 263.66677276 -8.56666565 259.60395813 C-8.6114213 251.6929423 -8.63992265 243.78194824 -8.66244179 235.87084097 C-8.68091246 229.47415893 -8.70515899 223.07752332 -8.73352051 216.68087769 C-8.73752904 215.77433302 -8.74153757 214.86778834 -8.74566758 213.93377262 C-8.75380407 212.09641573 -8.76194691 210.25905886 -8.77009606 208.42170203 C-8.84412782 191.54281273 -8.89923516 174.66390596 -8.94459558 157.78491747 C-8.98070931 144.36128181 -9.02694343 130.93772894 -9.08251953 117.51416016 C-9.14188299 103.1116509 -9.18988447 88.70916488 -9.21979427 74.30656242 C-9.2229117 72.8085823 -9.22603243 71.31060218 -9.22915649 69.81262207 C-9.2306765 69.07736679 -9.2321965 68.34211151 -9.23376256 67.58457577 C-9.24508791 62.40999416 -9.26335033 57.23546391 -9.28427124 52.06091309 C-9.31197433 45.14821561 -9.32372839 38.23564922 -9.32426262 31.32289696 C-9.32681155 28.80260353 -9.33447206 26.28230942 -9.3475666 23.76204872 C-9.36441554 20.35365609 -9.36291727 16.94576961 -9.35644531 13.53735352 C-9.36566356 12.53993259 -9.3748818 11.54251167 -9.38437939 10.51486588 C-9.37880677 9.60931332 -9.37323416 8.70376076 -9.36749268 7.77076721 C-9.36895924 6.98840478 -9.3704258 6.20604235 -9.3719368 5.39997196 C-8.40777451 0.15068871 -4.67098332 -0.03434547 0 0 Z " fill="#2D2D2C" transform="translate(1341,7.625)"/>
<path d="M0 0 C0.33 -1.32 0.66 -2.64 1 -4 C4.63 -4 8.26 -4 12 -4 C12.06799833 3.55443995 12.12294382 11.10876454 12.15543652 18.66343689 C12.17103791 22.17206264 12.19217364 25.68046666 12.22631836 29.18896484 C12.26539753 33.23016388 12.2797548 37.27113298 12.29296875 41.3125 C12.30845261 42.5617627 12.32393646 43.81102539 12.33988953 45.09814453 C12.34142258 53.08581602 11.55983344 58.76642931 7.375 65.6875 C-0.2155867 73.07833442 -8.4835841 74.32637038 -18.7109375 74.2109375 C-26.64007363 73.70241808 -32.68375779 70.96456443 -38 65 C-40.02395812 61.67026245 -41 59.88694981 -41 56 C-37.7 55.34 -34.4 54.68 -31 54 C-30.67 54.9075 -30.34 55.815 -30 56.75 C-27.3692159 61.02502416 -24.73845437 62.53058384 -20 64 C-14.23769034 64.98380897 -9.86298176 63.9289535 -4.7265625 61.265625 C-1.73972501 59.07617851 -0.21440759 57.08022143 0.51171875 53.421875 C0.56972656 52.54015625 0.62773437 51.6584375 0.6875 50.75 C0.75324219 49.85796875 0.81898438 48.9659375 0.88671875 48.046875 C0.92410156 47.37140625 0.96148438 46.6959375 1 46 C0.071875 46.639375 -0.85625 47.27875 -1.8125 47.9375 C-8.59975715 52.32925462 -17.14625818 51.84398973 -25 51 C-31.90403547 49.08029936 -37.25080802 45.11254402 -41 39 C-45.19401321 30.86712268 -45.40655965 20.81139402 -42.8125 12.125 C-39.55270425 3.92293327 -35.13791187 -0.47696839 -27 -4 C-17.70690384 -6.99044642 -7.99028774 -5.3268585 0 0 Z M-27.6015625 8.3671875 C-32.5164042 13.91434801 -33.41482871 19.19654351 -33.2421875 26.3515625 C-32.66223367 32.69363829 -29.36862568 35.91568775 -24.71875 39.80078125 C-20.56794902 42.6969083 -15.84755705 42.55691998 -11 42 C-5.14550744 40.20256807 -1.91360565 37.47757862 1 32 C2.99374888 26.01875337 2.99908576 19.32565978 0.3125 13.5625 C-2.71637274 8.43752156 -5.99175672 6.05108611 -11.75 4.5625 C-17.6581106 3.58515235 -22.94524382 4.39228131 -27.6015625 8.3671875 Z " fill="#2D2D2C" transform="translate(2117,509)"/>
<path d="M0 0 C3.63 0 7.26 0 11 0 C11.33 10.89 11.66 21.78 12 33 C14.20816406 30.6178125 16.41632813 28.235625 18.69140625 25.78125 C20.87671396 23.47867846 23.07510927 21.1893705 25.27514648 18.90087891 C26.7873305 17.31364253 28.28573688 15.71315284 29.76928711 14.09912109 C43.46624873 -0.7702894 43.46624873 -0.7702894 51.55686951 -1.12390137 C54.43160971 -0.99288711 57.18983869 -0.61093817 60 0 C55.89888102 4.90011932 51.62517898 9.46836966 47.0625 13.9375 C37.91102298 22.61361545 37.91102298 22.61361545 31 33 C31.32572998 33.45101074 31.65145996 33.90202148 31.98706055 34.36669922 C32.97893441 35.74006303 33.97079506 37.11343639 34.96264648 38.48681641 C36.1248238 40.09593438 37.28709792 41.70498243 38.44946289 43.31396484 C41.48417275 47.51499215 44.51739312 51.71707574 47.546875 55.921875 C48.11575439 56.71094238 48.68463379 57.50000977 49.27075195 58.31298828 C50.35062472 59.81092223 51.42992555 61.30926873 52.50854492 62.80810547 C53.00974854 63.50307129 53.51095215 64.19803711 54.02734375 64.9140625 C54.7541333 65.92194824 54.7541333 65.92194824 55.49560547 66.95019531 C57.57928435 69.78930078 59.73457365 72.57247608 61.90063477 75.34912109 C63 77 63 77 63 79 C58.26037243 80.15115392 53.61291966 80.87526471 49 79 C44.10851611 74.76008702 40.86581797 68.86471657 37.50634766 63.40332031 C35.31022015 59.89948252 32.88150293 56.58314922 30.4375 53.25 C27.54648898 49.21331008 24.73502841 45.14285483 22 41 C17.40940166 43.12098841 14.35446141 45.44247474 12 50 C11.13365346 54.97005444 11.11283571 59.90695786 11.125 64.9375 C11.10685038 66.30277269 11.08604058 67.66801275 11.0625 69.03320312 C11.01553344 72.35608695 10.99554751 75.67685306 11 79 C7.37 79 3.74 79 0 79 C0 52.93 0 26.86 0 0 Z " fill="#2D2D2C" transform="translate(1076,483)"/>
<path d="M0 0 C3.63 0 7.26 0 11 0 C12.06502491 3.31170569 13.12702443 6.6243372 14.1875 9.9375 C14.62545898 11.2977832 14.62545898 11.2977832 15.07226562 12.68554688 C17.86186292 21.41428679 20.43738039 30.20260707 23 39 C23.35827881 37.854104 23.71655762 36.70820801 24.08569336 35.52758789 C25.41133805 31.2905998 26.74105179 27.05489814 28.07202148 22.81958008 C28.64833507 20.98366772 29.22353321 19.14740484 29.79760742 17.31079102 C30.62127828 14.6763235 31.44890619 12.04312811 32.27734375 9.41015625 C32.53466782 8.58411392 32.79199188 7.75807159 33.05711365 6.90699768 C34.88612829 1.11387171 34.88612829 1.11387171 36 0 C37.68608966 -0.07205511 39.37500659 -0.08386068 41.0625 -0.0625 C41.98160156 -0.05347656 42.90070313 -0.04445313 43.84765625 -0.03515625 C44.55792969 -0.02355469 45.26820312 -0.01195312 46 0 C49.08886692 7.88122857 51.60783717 15.94133663 54.1875 24 C55.775625 28.95 57.36375 33.9 59 39 C62.63 26.13 66.26 13.26 70 0 C73.96 0 77.92 0 82 0 C80.03108093 7.34234987 77.93791435 14.62468369 75.6796875 21.8828125 C75.37555939 22.86369843 75.07143127 23.84458435 74.75808716 24.85519409 C74.1220951 26.90409302 73.48511269 28.95268478 72.84716797 31.00097656 C71.8670487 34.15055117 70.89238439 37.30178177 69.91796875 40.453125 C69.29720343 42.45062293 68.67612138 44.44802246 68.0546875 46.4453125 C67.76302704 47.38996368 67.47136658 48.33461487 67.17086792 49.30789185 C66.900336 50.17324554 66.62980408 51.03859924 66.35107422 51.93017578 C66.11363495 52.69419708 65.87619568 53.45821838 65.63156128 54.24539185 C65 56 65 56 64 57 C60.66672158 57.1424478 57.33546107 57.04222103 54 57 C50.4964914 48.80662229 47.84227398 40.38857351 45.25 31.875 C44.83502157 30.52331889 44.4196595 29.17175549 44.00390625 27.8203125 C42.99818736 24.5482173 41.99763573 21.27457005 41 18 C40.78384033 18.648479 40.56768066 19.29695801 40.3449707 19.96508789 C36.22998047 32.31005859 32.11499023 44.6550293 28 57 C24.37 57 20.74 57 17 57 C14.7804852 49.86435713 12.5633502 42.72798546 10.35042572 35.59029579 C9.32283998 32.27620177 8.2942044 28.96244119 7.26318359 25.64941406 C6.078595 21.84275945 4.89854711 18.034705 3.71875 14.2265625 C3.34689575 13.03382721 2.9750415 11.84109192 2.59191895 10.61221313 C2.25156616 9.51122284 1.91121338 8.41023254 1.56054688 7.27587891 C1.2585437 6.30325104 0.95654053 5.33062317 0.64538574 4.32852173 C0 2 0 2 0 0 Z " fill="#2D2D2C" transform="translate(1258,505)"/>
<path d="M0 0 C3.63 0 7.26 0 11 0 C11 26.4 11 52.8 11 80 C7.37 80 3.74 80 0 80 C-0.33 78.35 -0.66 76.7 -1 75 C-1.51949219 75.34933594 -2.03898437 75.69867187 -2.57421875 76.05859375 C-9.66070039 80.68249027 -9.66070039 80.68249027 -14 81 C-14.64453125 81.05027344 -15.2890625 81.10054687 -15.953125 81.15234375 C-23.94959997 81.50184003 -31.08286753 79.92558724 -37.375 74.8125 C-43.60926203 68.86791075 -46.06097857 61.95594031 -46.29272461 53.46655273 C-46.38214664 44.00879259 -45.40964129 36.46295417 -38.875 29.125 C-32.16410869 23.09802118 -24.70558297 21.35265897 -15.8359375 21.671875 C-9.88975655 22.35986288 -5.825806 24.3806455 -1 28 C-0.67 18.76 -0.34 9.52 0 0 Z M-29.875 36.3125 C-35.38980294 43.28710372 -35.81226627 49.27648283 -35 58 C-33.21797418 63.25228662 -29.9426796 67.2016958 -25.171875 70.1171875 C-20.47040116 72.02821823 -14.65092633 71.89820764 -9.8671875 70.27734375 C-4.70541334 67.51769393 -1.79113467 64.09650688 0.25 58.6875 C1.69327669 51.5913896 1.69203924 45.35924196 -2 39 C-5.6894238 34.48070581 -9.91375084 32.01634372 -15.6640625 31.0546875 C-21.26312491 30.92360577 -25.57383502 32.8528673 -29.875 36.3125 Z " fill="#2D2D2C" transform="translate(1499,482)"/>
<path d="M0 0 C3.63 0 7.26 0 11 0 C15.58127558 11.14101515 20.15396983 22.28552137 24.71923828 33.43310547 C26.22089397 37.09958865 27.72455622 40.7652384 29.22998047 44.43017578 C30.99215231 48.7209747 32.74897906 53.01392532 34.50192261 57.3085022 C35.1665188 58.93423799 35.83295815 60.55922155 36.50125122 62.18344116 C37.43281339 64.44845413 38.35781934 66.71603713 39.28125 68.984375 C39.55859482 69.65449112 39.83593964 70.32460724 40.12168884 71.01502991 C41.2693795 73.85180625 42 75.90624588 42 79 C38.04 79 34.08 79 30 79 C28.82923771 76.04322789 27.66323329 73.08473257 26.5 70.125 C26.16613281 69.28324219 25.83226562 68.44148437 25.48828125 67.57421875 C25.17246094 66.76855469 24.85664062 65.96289062 24.53125 65.1328125 C24.23798828 64.38918457 23.94472656 63.64555664 23.64257812 62.87939453 C23 61 23 61 23 59 C11.45 59 -0.1 59 -12 59 C-12.99 62.3 -13.98 65.6 -15 69 C-16.24674047 72.37745747 -17.62145077 75.67246738 -19 79 C-22.96 79 -26.92 79 -31 79 C-30.16446914 74.8223457 -29.13325363 71.52455849 -27.56323242 67.60839844 C-27.31591873 66.98814285 -27.06860504 66.36788727 -26.813797 65.72883606 C-25.99852736 63.68731772 -25.17711118 61.64833593 -24.35546875 59.609375 C-23.78322649 58.18089697 -23.21131712 56.75228555 -22.63972473 55.32354736 C-21.44108524 52.33002869 -20.23960891 49.3376706 -19.03588867 46.34619141 C-17.50203035 42.53408894 -15.97337942 38.71992702 -14.44665051 34.90496445 C-13.26499945 31.9530657 -12.08147074 29.00192283 -10.89730263 26.05103302 C-10.33365793 24.6463262 -9.7703657 23.24147789 -9.20744896 21.83647919 C-6.26528634 14.49810108 -3.2734596 7.19816279 0 0 Z M5 16 C3.28439209 20.21487449 1.57559157 24.43241971 -0.12695312 28.65258789 C-0.70711873 30.08791372 -1.28913894 31.52249135 -1.87304688 32.95629883 C-2.71192052 35.01710321 -3.54409239 37.08050434 -4.375 39.14453125 C-4.63748535 39.78526077 -4.8999707 40.4259903 -5.17041016 41.08613586 C-6.29601297 43.89908129 -7 45.93718295 -7 49 C1.25 49 9.5 49 18 49 C17.1532045 44.76602248 16.07723694 41.36683781 14.49609375 37.38671875 C14.2533522 36.77230423 14.01061066 36.15788971 13.76051331 35.52485657 C12.9901095 33.57748441 12.21390549 31.63248603 11.4375 29.6875 C10.91172353 28.36148105 10.38632887 27.03531064 9.86132812 25.70898438 C8.5786321 22.47089192 7.29072651 19.23490115 6 16 C5.67 16 5.34 16 5 16 Z " fill="#2D2D2C" transform="translate(998,483)"/>
<path d="M0 0 C5.10610101 4.02038269 7.58024943 8.03517845 8.390625 14.47265625 C8.80403146 22.75138552 6.99584442 29.25915519 1.43359375 35.5234375 C-5.80387253 42.16331482 -13.88479123 45.07152429 -23.6171875 44.92578125 C-30.19366017 44.32193151 -34.71810131 41.79765342 -38.95703125 36.7109375 C-43.20132394 30.73787194 -42.85064468 24.78537715 -41.95703125 17.7109375 C-39.32715576 9.20368877 -34.78817159 3.01680566 -26.95703125 -1.2890625 C-17.58874477 -5.27130048 -8.67854501 -5.7164069 0 0 Z " fill="#2D2D2C" transform="translate(1950.95703125,21.2890625)"/>
<path d="M0 0 C5.07525898 3.73366932 7.26080118 9.11052855 9.19140625 14.90234375 C9.19140625 18.86234375 9.19140625 22.82234375 9.19140625 26.90234375 C-5.65859375 26.90234375 -20.50859375 26.90234375 -35.80859375 26.90234375 C-34.48859375 30.20234375 -33.16859375 33.50234375 -31.80859375 36.90234375 C-31.47859375 37.89234375 -31.14859375 38.88234375 -30.80859375 39.90234375 C-28.38476298 41.07187791 -28.38476298 41.07187791 -25.80859375 41.90234375 C-25.14859375 42.23234375 -24.48859375 42.56234375 -23.80859375 42.90234375 C-18.2497996 43.40995819 -13.37510819 43.6168942 -8.24609375 41.27734375 C-5.58214828 38.68170458 -4.21101286 36.33047936 -2.80859375 32.90234375 C-1.16092128 33.18343488 0.4845377 33.47752901 2.12890625 33.77734375 C3.50369141 34.02097656 3.50369141 34.02097656 4.90625 34.26953125 C5.66035156 34.47835937 6.41445312 34.6871875 7.19140625 34.90234375 C8.19140625 36.90234375 8.19140625 36.90234375 7.66015625 38.63671875 C4.70464863 44.78608138 1.21472358 49.0829255 -5.09765625 51.9375 C-13.39037163 54.76755366 -22.34145782 55.23201153 -30.609375 52.0703125 C-37.72767783 48.28989945 -43.23247056 42.58471112 -45.80859375 34.90234375 C-48.12009826 25.25025059 -47.19947612 15.84951739 -42.84765625 6.93359375 C-39.30647274 1.20742467 -33.20913339 -2.62485901 -26.8828125 -4.7421875 C-17.06245309 -6.42514928 -8.48887832 -5.15199743 0 0 Z M-31.62109375 9.77734375 C-34.17126061 12.9751449 -34.17126061 12.9751449 -34.80859375 17.90234375 C-23.91859375 17.90234375 -13.02859375 17.90234375 -1.80859375 17.90234375 C-3.30452888 11.40792033 -3.30452888 11.40792033 -7.24609375 7.52734375 C-7.84292969 7.04523437 -8.43976563 6.563125 -9.0546875 6.06640625 C-16.45280985 1.15629387 -25.96740304 3.52767994 -31.62109375 9.77734375 Z " fill="#2D2D2C" transform="translate(1701.80859375,509.09765625)"/>
<path d="M0 0 C5.29664165 4.19642013 7.82595931 8.10233652 9.8125 14.55859375 C9.8125 18.84859375 9.8125 23.13859375 9.8125 27.55859375 C-5.0375 27.55859375 -19.8875 27.55859375 -35.1875 27.55859375 C-31.34489341 37.8472415 -31.34489341 37.8472415 -23.1875 43.55859375 C-13.63579997 44.34042308 -13.63579997 44.34042308 -5.1875 40.55859375 C-3.58234633 38.28714988 -2.42067643 36.07237647 -1.1875 33.55859375 C0.29456495 33.81308975 1.77318615 34.08771137 3.25 34.37109375 C4.07371094 34.52191406 4.89742187 34.67273438 5.74609375 34.828125 C6.42800781 35.06917969 7.10992188 35.31023438 7.8125 35.55859375 C8.8125 38.55859375 8.8125 38.55859375 8.02734375 40.42578125 C3.45480659 47.6131944 -1.18959431 51.86302254 -9.54296875 54.0546875 C-18.7001574 55.79955801 -26.21631512 54.19039751 -34.375 49.87109375 C-41.35984304 44.12800058 -44.95710831 37.5345941 -46.1875 28.55859375 C-46.56788357 18.99137071 -44.80230748 10.77490391 -38.359375 3.4921875 C-27.98415013 -6.29075091 -12.11657764 -7.98395919 0 0 Z M-31 10.43359375 C-33.55016686 13.6313949 -33.55016686 13.6313949 -34.1875 18.55859375 C-23.2975 18.55859375 -12.4075 18.55859375 -1.1875 18.55859375 C-2.43491784 12.01909214 -2.43491784 12.01909214 -6.84765625 7.35546875 C-15.281755 2.59347264 -24.27773497 3.00271389 -31 10.43359375 Z " fill="#2D2D2C" transform="translate(1186.1875,508.44140625)"/>
<path d="M0 0 C3.3 0 6.6 0 10 0 C10.33 10.23 10.66 20.46 11 31 C12.32 29.35 13.64 27.7 15 26 C21.29352888 21.57169036 28.54085134 20.90249505 36 22 C42.61588862 23.99395532 46.36898507 26.76808895 49.93284607 32.62744141 C51.84262336 36.8733692 51.61368456 41.04245734 51.48828125 45.625 C51.48120651 46.61250244 51.47413177 47.60000488 51.46684265 48.61743164 C51.43903956 51.7457523 51.37632717 54.87222798 51.3125 58 C51.28739895 60.13148442 51.26458896 62.26299712 51.24414062 64.39453125 C51.18925895 69.59705603 51.10308413 74.79821612 51 80 C47.7 80 44.4 80 41 80 C40.970271 78.32828735 40.970271 78.32828735 40.93994141 76.62280273 C40.86353052 72.46470592 40.77486931 68.30694294 40.68261719 64.14916992 C40.64447345 62.35398986 40.60959578 60.55873717 40.578125 58.76342773 C40.53215553 56.17405341 40.47421581 53.58517281 40.4140625 50.99609375 C40.40251129 50.20101913 40.39096008 49.40594452 40.37905884 48.58677673 C40.2520811 43.72831775 39.68886738 39.57700045 38 35 C33.20220357 32.01780804 27.45871076 32.48953233 22 33 C17.82940939 34.5085115 15.87724293 36.94696678 13.83666992 40.8815918 C10.51587318 49.28969023 10.61495168 58.78429276 10.375 67.6875 C10.33632812 68.87794922 10.29765625 70.06839844 10.2578125 71.29492188 C10.16459005 74.19647053 10.07878652 77.09802966 10 80 C6.7 80 3.4 80 0 80 C0 53.6 0 27.2 0 0 Z " fill="#2D2D2C" transform="translate(1785,482)"/>
<path d="M0 0 C7.6109358 8.26330173 9.66808519 16.38577204 9.4609375 27.28125 C9.08955508 35.29722692 6.10964249 41.50271308 0.18359375 46.90625 C-7.26166922 52.38456483 -15.7258171 54.15385853 -24.8125 53.375 C-32.71504839 51.93150045 -39.22120699 48.78872652 -44.34765625 42.48828125 C-49.28963095 35.1545637 -50.83409132 27.12964971 -49.8125 18.375 C-47.85960488 9.99041436 -44.10937227 2.78083936 -36.72265625 -1.96875 C-24.66636215 -8.25508585 -11.56708187 -6.68320286 0 0 Z M-32.63671875 7.9296875 C-37.55891971 13.29286046 -39.31210592 18.76971988 -39.12890625 26 C-38.39773797 31.48827546 -36.26250264 35.96124743 -32.3125 39.8125 C-26.337638 43.54678875 -21.84713548 44.01915993 -14.8125 43.375 C-8.94827453 41.42025818 -5.91276176 37.73395521 -2.69140625 32.58203125 C-0.44023422 26.92908815 -1.11280867 19.63870725 -2.875 13.9375 C-7.38207692 7.9765273 -11.71045942 4.53863358 -19.2578125 3.4375 C-24.43956047 3.31072941 -28.66578874 4.54546877 -32.63671875 7.9296875 Z " fill="#2D2D2C" transform="translate(1962.8125,509.625)"/>
<path d="M0 0 C6.52217396 4.46491978 10.72903513 9.6756877 12.578125 17.421875 C14.1573495 27.0726914 12.83816846 35.64303349 7.75 44.0703125 C2.98239694 50.32779152 -4.32505309 53.8023172 -12 55 C-21.06047508 55.87410891 -29.88001798 53.82543983 -37 48 C-43.87872271 41.37479287 -46.14240171 35.08718389 -46.4375 25.625 C-46.21587728 16.69803668 -44.43101993 10.33232724 -38.4375 3.625 C-27.96261103 -5.92222352 -12.15171253 -7.04176162 0 0 Z M-29.109375 9.875 C-34.57470069 16.0178454 -35.41145297 20.5111044 -35.34765625 28.6953125 C-34.7010952 34.84127484 -31.78362033 38.34378113 -27.375 42.4375 C-22.30384208 45.77378811 -16.87660549 45.69844901 -11 45 C-4.75093546 42.69281226 -1.73391375 38.9052537 1 33 C2.79045617 27.62863149 2.54046504 22.67828617 0.8125 17.3125 C-2.7835173 10.74046839 -5.78739956 7.56142061 -12.9140625 5.4453125 C-18.73595391 4.20243681 -24.69531739 5.95139324 -29.109375 9.875 Z " fill="#2D2D2C" transform="translate(2052,508)"/>
<path d="M0 0 C6.98044083 4.778638 11.32993138 10.64965691 13 19 C13.89161523 28.83700083 12.46765493 37.86108172 6.375 45.875 C1.01519365 51.54848458 -6.44906302 54.46447361 -14.10546875 55.203125 C-22.53448992 55.39289658 -30.38899828 53.40900141 -37 48 C-43.87872271 41.37479287 -46.14240171 35.08718389 -46.4375 25.625 C-46.21587728 16.69803668 -44.43101993 10.33232724 -38.4375 3.625 C-27.96261103 -5.92222352 -12.15171253 -7.04176162 0 0 Z M-29.08203125 9.8828125 C-34.60523892 15.97971384 -35.41134843 20.52451578 -35.34765625 28.6953125 C-34.7010952 34.84127484 -31.78362033 38.34378113 -27.375 42.4375 C-22.30384208 45.77378811 -16.87660549 45.69844901 -11 45 C-4.75093546 42.69281226 -1.73391375 38.9052537 1 33 C3.00488537 26.98534389 2.60372384 20.67721363 0.09375 14.85546875 C-2.44284431 10.55231768 -5.71863404 7.88615041 -10.36328125 6.08203125 C-17.41282151 4.27305124 -23.55797391 4.88732349 -29.08203125 9.8828125 Z " fill="#2D2D2C" transform="translate(1391,508)"/>
<path d="M0 0 C4.72840447 4.16099593 7.65557417 8.7262137 8.17398071 15.15882874 C8.23068402 17.69940735 8.22485981 20.23239787 8.1953125 22.7734375 C8.1924826 23.6971817 8.18965271 24.6209259 8.18673706 25.57266235 C8.17559179 28.50690976 8.15049765 31.4408457 8.125 34.375 C8.11496289 36.37108932 8.10583832 38.36718346 8.09765625 40.36328125 C8.07567097 45.24230649 8.04118017 50.12110054 8 55 C4.37 55 0.74 55 -3 55 C-3.0093457 53.81970215 -3.01869141 52.6394043 -3.02832031 51.42333984 C-3.06830648 47.02843002 -3.13408915 42.63421387 -3.20751953 38.23974609 C-3.2356792 36.34074846 -3.25691858 34.4416347 -3.27099609 32.54248047 C-3.29249518 29.80636362 -3.33918008 27.07163548 -3.390625 24.3359375 C-3.39185364 23.49195404 -3.39308228 22.64797058 -3.39434814 21.77841187 C-3.53003743 16.27079903 -4.42593276 13.24556373 -8 9 C-11.68911523 7.15544239 -15.96457145 7.64937035 -20 8 C-24.17930929 9.72623644 -26.48705722 12.27391242 -29 16 C-30.87161028 20.61305291 -31.33172003 24.87986131 -31.4140625 29.8046875 C-31.43342865 30.5286673 -31.4527948 31.25264709 -31.4727478 31.99856567 C-31.53209886 34.29059398 -31.57874878 36.58267374 -31.625 38.875 C-31.66322087 40.43752081 -31.70227494 42.00002148 -31.7421875 43.5625 C-31.83776308 47.37483465 -31.92195606 51.1872678 -32 55 C-35.63 55 -39.26 55 -43 55 C-43 36.19 -43 17.38 -43 -2 C-39.37 -2 -35.74 -2 -32 -2 C-31.67 0.31 -31.34 2.62 -31 5 C-30.56429688 4.59007812 -30.12859375 4.18015625 -29.6796875 3.7578125 C-21.43279918 -3.70365789 -9.98421755 -6.08480211 0 0 Z " fill="#2D2D2C" transform="translate(1894,507)"/>
<path d="M0 0 C3.63 0 7.26 0 11 0 C14.93738293 8.44341898 18.441625 17.00467196 21.8125 25.6875 C22.31938246 26.98643703 22.82654238 28.28526583 23.33398438 29.58398438 C24.55870758 32.72160859 25.78065233 35.86028374 27 39 C29.35398144 35.46902784 30.74843377 31.76970514 32.2578125 27.83203125 C32.56572723 27.03721848 32.87364197 26.2424057 33.19088745 25.42350769 C34.1723333 22.88780736 35.14872354 20.35019451 36.125 17.8125 C36.79003224 16.0916684 37.45539291 14.37096369 38.12109375 12.65039062 C39.75120877 8.43505597 41.37679275 4.2179992 43 0 C46.96 0 50.92 0 55 0 C49.62473745 14.59624139 44.03196674 29.09837065 38.3125 43.5625 C37.99529999 44.36480042 37.67809998 45.16710083 37.35128784 45.99371338 C33.25885375 56.33901683 29.13927525 66.67335564 25 77 C21.37 77 17.74 77 14 77 C15 72 15 72 16.7265625 68.64550781 C20.04820952 62.05464519 21.78441433 56.58494493 19.7421875 49.29101562 C17.5495552 42.94189491 14.78957026 36.85424719 12 30.75 C11.06908371 28.60769282 10.14325664 26.46316663 9.22265625 24.31640625 C7.19552088 19.61295643 5.12165493 14.93371863 3.00219727 10.2711792 C0 3.46760049 0 3.46760049 0 0 Z " fill="#2D2D2C" transform="translate(1200,505)"/>
<path d="M0 0 C3.96 0 7.92 0 12 0 C14.14057344 5.37344658 16.27670522 10.7486288 18.40869141 16.12548828 C19.13500283 17.9554031 19.86253807 19.78483267 20.59130859 21.61376953 C21.63699259 24.23864976 22.67830159 26.86522836 23.71875 29.4921875 C24.04685669 30.31306854 24.37496338 31.13394958 24.7130127 31.97970581 C27 37.77225659 27 37.77225659 27 40 C27.66 40 28.32 40 29 40 C29.15130371 39.44634766 29.30260742 38.89269531 29.45849609 38.32226562 C31.68697176 30.518658 34.62422812 23.03302578 37.625 15.5 C38.13316712 14.2136817 38.64098189 12.92722416 39.1484375 11.640625 C42.82573342 2.34853316 42.82573342 2.34853316 44 0 C47.63 0 51.26 0 55 0 C54.26429317 3.67853415 53.52397781 6.51567262 52.17749023 9.93188477 C51.80297226 10.88801163 51.42845428 11.84413849 51.04258728 12.82923889 C50.63536942 13.85625412 50.22815155 14.88326935 49.80859375 15.94140625 C49.17329491 17.55764137 49.17329491 17.55764137 48.52516174 19.20652771 C47.16650136 22.66006648 45.80202724 26.11127568 44.4375 29.5625 C43.54585437 31.82732849 42.65457468 34.09230108 41.76367188 36.35742188 C39.59757412 41.8604123 37.42369871 47.36027688 35.24481201 52.85821533 C34.421794 54.9354329 33.59971558 57.01302302 32.77862549 59.09100342 C31.6584686 61.92501598 30.53489324 64.75764634 29.41015625 67.58984375 C29.07721054 68.43349991 28.74426483 69.27715607 28.40122986 70.14637756 C26.11473233 75.88526767 26.11473233 75.88526767 25 77 C23.14712498 77.07226502 21.29166122 77.0838122 19.4375 77.0625 C17.91962891 77.04896484 17.91962891 77.04896484 16.37109375 77.03515625 C15.58863281 77.02355469 14.80617188 77.01195312 14 77 C14.42152344 75.9378125 14.84304687 74.875625 15.27734375 73.78125 C15.83120566 72.35435153 16.38456421 70.9272576 16.9375 69.5 C17.21529297 68.80390625 17.49308594 68.1078125 17.77929688 67.390625 C18.18051758 66.34648438 18.18051758 66.34648438 18.58984375 65.28125 C18.83597412 64.65283203 19.08210449 64.02441406 19.33569336 63.37695312 C21.47086124 55.73711686 20.92434397 51.30720301 17.7734375 44.1796875 C17.4287442 43.35856476 17.0840509 42.53744202 16.72891235 41.69143677 C15.62813455 39.07826281 14.5027589 36.47662812 13.375 33.875 C11.91802046 30.45845688 10.47070311 27.03785449 9.0234375 23.6171875 C8.49807404 22.38340363 8.49807404 22.38340363 7.96209717 21.12469482 C5.02144652 14.17540814 2.41708557 7.14789935 0 0 Z " fill="#2D2D2C" transform="translate(2137,505)"/>
<path d="M0 0 C2.5091711 2.0802951 4.45076433 4.12100371 6 7 C6.1875 9.8125 6.1875 9.8125 5 12 C2.11090151 13.59660706 0.30941204 14 -3 14 C-4.34331654 12.00669158 -5.67594012 10.00615134 -7 8 C-9.87317936 6.16553876 -12.11724916 5.72683047 -15.5 5.75 C-16.2528125 5.74484375 -17.005625 5.7396875 -17.78125 5.734375 C-20.26647128 6.03190149 -21.87773452 6.68754635 -24 8 C-25.16666667 9.83333333 -25.16666667 9.83333333 -25 12 C-21.70282422 16.40203416 -17.77040889 17.22597789 -12.6875 18.5 C-5.71226305 20.27596024 0.2734557 22.20354431 5.4375 27.5 C7.70195287 32.57237443 7.8178406 37.52562552 7 43 C4.23804462 48.50799171 0.49783172 51.99126027 -5.25 54.3125 C-14.13153883 55.94078212 -21.9417809 55.4043396 -30 51 C-34.02857563 47.66061632 -36.57639935 44.58144243 -37.9375 39.5 C-37.958125 38.675 -37.97875 37.85 -38 37 C-32.375 34 -32.375 34 -29 34 C-27.859375 35.64453125 -27.859375 35.64453125 -26.75 37.8125 C-24.87437986 40.96086237 -23.96349268 42.02316811 -20.75 44.0625 C-16.18507705 45.20373074 -12.53343628 45.2865157 -8 44 C-5.06395913 41.99489892 -4.21349917 40.94888519 -3.4375 37.5 C-4.25640296 33.86043129 -5.92054673 33.05832908 -9 31 C-11.75974036 29.9516307 -14.57690828 29.22073988 -17.4375 28.5 C-24.2260541 26.78062822 -30.36507744 24.61069573 -35 19 C-36.78983568 13.63049295 -36.88431724 8.80264667 -34.375 3.6875 C-25.55243556 -6.29592818 -11.13517956 -6.74023258 0 0 Z " fill="#2D2D2C" transform="translate(1558,508)"/>
<path d="M0 0 C5.01737716 4.29927671 7.78519743 8.52105297 9 15 C5.12315913 16.19287411 2.08378077 17 -2 17 C-3.16796875 15.35546875 -3.16796875 15.35546875 -4.1875 13.1875 C-6.13389152 9.83637331 -7.60429927 8.26353645 -11.25 6.875 C-16.18076467 5.60121913 -20.29432376 6.14153254 -25 8 C-29.29199082 10.61251615 -31.26052137 13.30340769 -33 18 C-34.51541216 24.84266877 -34.24388714 30.7110847 -31 37 C-27.67580612 41.00607981 -24.64482689 43.65641222 -19.4140625 44.3359375 C-13.4643111 44.41926735 -9.52717911 44.30082015 -5 40 C-3.11431306 36.89985071 -3.11431306 36.89985071 -2 34 C1.63 34.33 5.26 34.66 9 35 C8.69893442 41.02131165 5.93414541 44.68810292 2 49 C-5.00688064 54.7882927 -13.19850408 55.814706 -22 55 C-30.06072075 53.74941199 -35.72546343 50.21103592 -41 44 C-46.35219037 35.11418119 -47.17686044 25.59506931 -45.0625 15.5625 C-42.81247244 8.11124596 -38.13656852 2.42553336 -31.421875 -1.51171875 C-21.37334817 -5.69860493 -9.39241264 -5.88261634 0 0 Z " fill="#2D2D2C" transform="translate(1765,508)"/>
<path d="M0 0 C20.46 0 40.92 0 62 0 C62 3.3 62 6.6 62 10 C53.75 10 45.5 10 37 10 C37 32.77 37 55.54 37 79 C33.04 79 29.08 79 25 79 C25.33 56.23 25.66 33.46 26 10 C17.42 10 8.84 10 0 10 C0 6.7 0 3.4 0 0 Z " fill="#2D2D2C" transform="translate(1598,483)"/>
<path d="M0 0 C1 1 1 1 1.09765625 3.28515625 C1.08605469 4.20167969 1.07445312 5.11820312 1.0625 6.0625 C1.05347656 6.98160156 1.04445313 7.90070313 1.03515625 8.84765625 C1.02355469 9.55792969 1.01195312 10.26820313 1 11 C0.20335937 10.95359375 -0.59328125 10.9071875 -1.4140625 10.859375 C-6.22108923 10.695632 -10.01018371 10.59346831 -14.5 12.4375 C-20.79119879 18.88597876 -22.0481805 27.13385331 -22.31640625 35.83203125 C-22.35830078 37.12431641 -22.40019531 38.41660156 -22.44335938 39.74804688 C-22.48316352 41.10286192 -22.52287591 42.45767967 -22.5625 43.8125 C-22.60573723 45.18686105 -22.64935312 46.56121024 -22.69335938 47.93554688 C-22.7992979 51.29026669 -22.90137189 54.6450586 -23 58 C-26.63 58 -30.26 58 -34 58 C-34 39.19 -34 20.38 -34 1 C-30.37 1 -26.74 1 -23 1 C-22.67 3.31 -22.34 5.62 -22 8 C-21.55269531 7.59007812 -21.10539062 7.18015625 -20.64453125 6.7578125 C-13.94872035 0.79011749 -9.00106098 -0.71675115 0 0 Z " fill="#2D2D2C" transform="translate(1449,504)"/>
<path d="M0 0 C3.3 0 6.6 0 10 0 C10 26.4 10 52.8 10 80 C6.7 80 3.4 80 0 80 C0 53.6 0 27.2 0 0 Z " fill="#2D2D2C" transform="translate(1984,482)"/>
</svg>
