<svg width="576" height="165" viewBox="0 0 576 165" fill="none" xmlns="http://www.w3.org/2000/svg">
<path d="M151.555 0C157.876 0.000246089 163 5.12435 163 11.4453V151.555C163 157.876 157.876 163 151.555 163H11.4453C5.12435 163 0.000248057 157.876 0 151.555V11.4453C0.000246094 5.12435 5.12435 0.000248057 11.4453 0H151.555ZM68.4385 22.8203C66.7969 22.8204 65.3193 24.4704 65.3193 25.9551L48.9033 138.133C48.9034 139.782 49.7238 141.266 51.3652 141.267H61.708C64.1703 141.267 64.8269 140.112 65.3193 138.133L71.2295 96.8906C72.8713 94.086 79.9305 86.0029 88.3027 86.0029C95.8542 86.003 99.7938 92.4366 98.3164 103.654L93.5557 138.133C93.5557 139.782 94.3769 141.267 96.0186 141.267H106.36C108.002 141.267 109.48 139.618 109.973 138.133L114.733 103.654C117.032 84.8482 110.793 71.6505 92.7354 71.6504C84.0349 71.6504 76.3191 76.9294 74.0205 78.9092L81.5723 25.9551C81.5723 25.1303 81.5715 24.3055 81.2432 23.9756C80.9148 23.6457 80.0943 22.8203 79.2734 22.8203H68.4385Z" fill="black"/>
<mask id="mask0_358_63" style="mask-type:luminance" maskUnits="userSpaceOnUse" x="245" y="0" width="331" height="162">
<path d="M575.896 0H245.227V161.585H575.896V0Z" fill="white"/>
</mask>
<g mask="url(#mask0_358_63)">
<g clip-path="url(#clip0_358_63)">
<path d="M505.131 17.8783C509.231 17.8783 513.031 14.4783 513.031 10.5783C513.031 8.87828 512.431 7.47828 511.431 6.37828C510.331 5.17828 508.731 4.67828 507.331 4.67828C503.231 4.67828 499.931 8.07828 499.631 12.2783C499.331 15.3783 501.731 17.8783 505.131 17.8783Z" fill="black"/>
<path d="M315.931 34.4783C301.731 34.7783 292.431 46.6783 292.531 60.6783C292.531 74.6783 301.831 85.6783 316.031 85.6783C323.131 85.6783 330.531 82.5783 333.031 80.3783C333.831 79.5783 333.831 78.9783 333.631 78.3783L332.231 76.5783C331.631 75.7783 331.131 75.7783 330.131 76.5783C326.031 79.3783 321.331 81.0783 316.531 81.0783C306.131 81.0783 298.731 72.9783 298.231 62.1783H335.731C337.631 62.1783 337.631 60.1783 337.631 58.7783C337.531 44.5783 328.131 34.4783 315.931 34.4783ZM298.231 58.0783C298.831 47.0783 305.631 39.1783 316.031 39.1783C326.431 39.1783 332.131 47.5783 332.131 58.0783H298.231Z" fill="black"/>
<path d="M347.131 2.17828H345.231C344.431 2.17828 343.831 2.77828 343.831 3.87828L344.131 84.1783C344.131 84.3783 344.131 84.9783 344.331 85.3783C344.531 85.5783 344.931 85.9783 345.131 85.9783H347.031C347.831 85.9783 348.431 85.3783 348.431 84.2783V3.87828C348.431 3.07828 347.831 2.17828 347.131 2.17828Z" fill="black"/>
<path d="M268.231 36.6783C261.731 36.6783 255.431 39.1783 250.831 43.3783V3.87828C250.831 3.07828 250.031 2.17828 249.131 2.17828H247.131C246.031 2.17828 245.231 2.97828 245.231 3.87828V83.9783C245.231 84.1783 245.231 84.7783 245.431 85.1783C245.631 85.3783 246.031 85.7783 246.531 85.7783H249.031C250.131 85.7783 250.731 85.1783 250.731 84.0783V49.7783C251.331 49.1783 257.831 41.3783 267.931 41.3783C276.931 41.3783 282.131 47.2783 282.131 58.2783V83.9783C282.131 84.7783 282.931 85.6783 283.831 85.6783H286.331C287.131 85.6783 287.931 85.0783 287.931 83.9783V58.0783C287.931 43.7783 280.831 36.6783 268.231 36.6783Z" fill="black"/>
<path d="M470.931 36.7783C464.931 36.7783 459.631 40.4783 458.131 41.8783L463.231 4.67827C463.231 4.07827 463.231 3.47827 463.031 3.27827C462.831 3.07827 462.231 2.47827 461.631 2.47827H454.231C453.131 2.47827 452.131 3.67827 452.131 4.67827L440.831 83.3783C440.831 84.5783 441.431 85.5783 442.531 85.5783H449.631C451.331 85.5783 451.731 84.7783 452.131 83.3783L456.231 54.4783C457.331 52.4783 462.231 46.8783 467.931 46.8783C473.131 46.8783 475.831 51.3783 474.831 59.2783L471.531 83.4783C471.531 84.6783 472.131 85.6783 473.231 85.6783H480.331C481.431 85.6783 482.431 84.4783 482.831 83.4783L486.131 59.2783C487.531 46.0783 483.231 36.7783 470.931 36.7783Z" fill="black"/>
<path d="M506.131 37.6783H498.731C497.431 37.6783 496.631 38.8783 496.231 39.8783L490.231 83.3783C490.231 84.5783 490.831 85.5783 491.931 85.5783H499.331C500.431 85.5783 501.431 84.3783 501.831 83.3783L507.831 39.8783C507.831 38.7783 507.231 37.6783 506.131 37.6783Z" fill="black"/>
<path d="M437.431 38.1783C435.531 36.7783 431.131 34.7783 424.831 34.7783C411.431 34.7783 406.231 41.8783 406.231 48.7783C406.231 55.8783 411.231 59.9783 417.531 63.9783C422.731 67.0783 424.631 68.6783 424.631 71.5783C424.631 74.9783 421.331 76.6783 418.131 76.6783C414.531 76.6783 411.031 75.4783 408.331 73.5783C407.231 72.7783 406.231 73.3783 405.631 74.1783L402.931 78.6783C402.731 78.8783 402.331 79.4783 402.731 79.8783C402.631 80.6783 402.931 80.8783 403.431 81.2783C405.531 82.9783 410.831 85.7783 417.931 85.7783C430.531 85.7783 436.831 79.2783 436.831 70.5783C436.831 62.6783 431.631 59.0783 424.831 54.8783C421.031 52.6783 418.531 51.1783 418.531 48.3783C418.531 46.1783 420.431 43.8783 424.531 43.8783C427.531 43.8783 430.531 44.6783 433.331 46.3783C434.131 46.9783 435.431 46.3783 436.031 45.1783L438.131 41.2783C438.831 40.1783 438.831 39.0783 437.431 38.1783Z" fill="black"/>
<path d="M375.331 34.7783C369.831 34.7783 364.631 36.7783 360.231 40.0783L360.031 36.9783C360.031 36.3783 359.431 36.1783 358.431 36.1783H357.331C356.531 36.1783 355.731 36.7783 355.431 37.8783V121.378C355.431 122.178 356.231 123.078 357.131 123.078H359.231C360.031 123.078 360.831 122.478 360.831 121.378V82.2783C362.231 83.4783 366.831 86.7783 374.431 86.7783C388.031 86.7783 397.931 75.7783 397.931 60.9783C397.931 46.0783 388.131 34.7783 375.331 34.7783ZM374.131 82.2783C366.231 82.2783 361.331 76.5783 361.031 76.3783V46.8783C361.231 45.6783 366.231 39.2783 375.231 39.2783C385.631 39.2783 392.631 48.8783 392.631 60.6783C392.631 72.4783 385.031 82.2783 374.131 82.2783Z" fill="black"/>
<path d="M574.031 38.4783H563.931L565.831 25.1783C565.831 23.9783 565.231 22.7783 564.131 22.7783H557.031C555.931 22.9783 554.931 23.9783 554.531 25.1783L552.631 38.4783H542.731H533.731L535.831 22.7783C536.931 14.3783 540.831 10.7783 545.431 10.7783C547.931 10.7783 550.631 12.1783 552.331 13.2783C553.431 14.0783 554.231 13.4783 555.031 12.6783L558.331 7.57827C558.931 6.77827 558.931 5.57827 558.331 5.07827C555.731 2.77827 551.531 -0.0217285 545.931 -0.0217285C534.631 -0.0217285 526.231 7.27827 524.131 22.4783L521.831 38.1783H516.231C515.131 38.1783 514.131 38.9783 514.131 40.1783L513.031 45.2783C513.031 45.8783 513.031 46.4783 513.631 46.6783C513.831 46.8783 514.431 47.2783 515.031 47.2783H520.531L510.631 120.678C510.631 121.878 511.231 122.878 512.231 122.878H519.931C521.031 122.878 522.031 121.678 522.431 120.678L532.231 47.2783H544.831H551.131L548.131 74.6783C547.031 83.2783 548.931 88.9783 557.431 88.9783C562.631 88.9783 569.431 86.1783 570.631 85.5783C571.731 84.9783 572.531 84.1783 572.031 82.7783L570.631 77.3783C570.431 76.1783 569.831 75.3783 568.531 76.1783C567.231 76.9783 564.331 78.5783 562.231 78.5783C560.331 78.5783 558.931 77.7783 559.531 73.3783L562.831 47.2783H573.231C574.331 47.2783 575.231 47.0783 575.331 45.8783L576.131 40.7783C576.131 39.5783 575.431 38.4783 574.031 38.4783Z" fill="black"/>
</g>
</g>
<path d="M249.354 146.302H254.832L252.104 139.24L249.354 146.302ZM251.18 136.6H253.006L259.122 152H257.032L255.514 148.084H248.672L247.154 152H245.086L251.18 136.6ZM278.206 152L273.41 144.916L271.716 146.654V152H268.724V136.6H271.716V142.694L277.458 136.6H281.396L275.456 142.76L281.946 152H278.206ZM294.435 146.082C294.435 146.478 294.413 146.962 294.391 147.182H286.163C286.405 148.854 287.483 149.844 289.067 149.844C290.365 149.844 291.289 149.228 291.575 148.15L294.171 148.854C293.555 150.944 291.619 152.176 289.023 152.176C285.349 152.176 283.391 149.338 283.391 146.456C283.391 143.574 285.195 140.736 288.869 140.736C292.609 140.736 294.435 143.508 294.435 146.082ZM286.229 145.158H291.465C291.333 143.838 290.475 142.848 288.869 142.848C287.505 142.848 286.537 143.662 286.229 145.158ZM304.639 140.912H307.477L301.625 156.004H298.809L300.525 151.56L296.213 140.912H299.227L301.889 148.04L304.639 140.912ZM312.918 152L309.464 140.912H312.258L314.172 148.128L316.394 140.912H318.924L321.146 148.128L323.038 140.912H325.832L322.4 152H319.914L317.67 144.762L315.382 152H312.918ZM333.764 152.176C330.398 152.176 327.978 149.756 327.978 146.456C327.978 143.156 330.398 140.736 333.764 140.736C337.13 140.736 339.55 143.156 339.55 146.456C339.55 149.756 337.13 152.176 333.764 152.176ZM333.764 149.778C335.546 149.778 336.756 148.436 336.756 146.456C336.756 144.476 335.546 143.134 333.764 143.134C331.96 143.134 330.772 144.476 330.772 146.456C330.772 148.436 331.96 149.778 333.764 149.778ZM350.105 143.596C349.709 143.42 349.181 143.332 348.697 143.332C347.135 143.332 345.727 144.63 345.727 147.93V152H342.955V140.912H345.727V142.936C346.277 141.682 347.729 140.736 349.071 140.736C349.467 140.736 349.951 140.802 350.281 140.912L350.105 143.596ZM357.511 152.176C354.189 152.176 352.231 149.844 352.231 146.456C352.231 143.068 354.189 140.736 357.467 140.736C358.853 140.736 360.041 141.308 360.679 142.144V136.424H363.451V152H360.679V150.724C360.129 151.604 358.897 152.176 357.511 152.176ZM357.907 149.778C359.689 149.778 360.855 148.458 360.855 146.456C360.855 144.454 359.689 143.134 357.907 143.134C356.147 143.134 354.981 144.454 354.981 146.456C354.981 148.458 356.147 149.778 357.907 149.778ZM371.338 152.176C368.654 152.176 367.048 150.526 366.498 148.898L368.764 147.974C369.094 149.096 369.952 150.02 371.338 150.02C372.372 150.02 373.054 149.47 373.054 148.766C373.054 146.676 367.004 148.04 367.004 143.838C367.004 142.1 368.522 140.736 370.942 140.736C373.098 140.736 374.924 141.836 375.408 143.442L373.164 144.388C372.856 143.332 371.888 142.782 370.986 142.782C370.106 142.782 369.512 143.156 369.512 143.794C369.512 145.752 375.606 144.19 375.606 148.722C375.606 150.636 373.89 152.176 371.338 152.176ZM390.702 152.176C387.666 152.176 385.136 150.13 384.762 147.336L387.424 146.522C387.666 148.37 389.096 149.624 390.812 149.624C392.418 149.624 393.474 148.854 393.474 147.688C393.474 144.366 385.312 146.236 385.312 140.648C385.312 138.184 387.622 136.424 390.658 136.424C393.584 136.424 395.894 137.986 396.378 140.318L393.694 141.418C393.386 139.922 392.264 138.976 390.658 138.976C389.184 138.976 388.282 139.614 388.282 140.648C388.282 143.442 396.51 141.374 396.51 147.622C396.51 150.35 394.178 152.176 390.702 152.176ZM406.363 151.89C405.813 152.088 405.219 152.176 404.581 152.176C402.337 152.176 400.665 150.966 400.665 148.37V143.244H398.795V140.912H400.665V137.656H403.437V140.912H406.231V143.244H403.437V148.106C403.437 149.162 404.009 149.734 404.867 149.734C405.285 149.734 405.769 149.668 406.165 149.47L406.363 151.89ZM419.824 140.912V152H417.052V150.328C416.348 151.406 415.094 152.176 413.532 152.176C411.134 152.176 409.484 150.592 409.484 148.172V140.912H412.256V147.512C412.256 148.81 413.07 149.712 414.368 149.712C416.084 149.712 417.052 148.26 417.052 145.774V140.912H419.824ZM428.531 152.176C425.209 152.176 423.251 149.844 423.251 146.456C423.251 143.068 425.209 140.736 428.487 140.736C429.873 140.736 431.061 141.308 431.699 142.144V136.424H434.471V152H431.699V150.724C431.149 151.604 429.917 152.176 428.531 152.176ZM428.927 149.778C430.709 149.778 431.875 148.458 431.875 146.456C431.875 144.454 430.709 143.134 428.927 143.134C427.167 143.134 426.001 144.454 426.001 146.456C426.001 148.458 427.167 149.778 428.927 149.778ZM439.871 139.218C438.881 139.218 438.155 138.47 438.155 137.502C438.155 136.556 438.881 135.808 439.871 135.808C440.883 135.808 441.631 136.556 441.631 137.502C441.631 138.47 440.883 139.218 439.871 139.218ZM438.485 152V140.912H441.257V152H438.485ZM450.454 152.176C447.088 152.176 444.668 149.756 444.668 146.456C444.668 143.156 447.088 140.736 450.454 140.736C453.82 140.736 456.24 143.156 456.24 146.456C456.24 149.756 453.82 152.176 450.454 152.176ZM450.454 149.778C452.236 149.778 453.446 148.436 453.446 146.456C453.446 144.476 452.236 143.134 450.454 143.134C448.65 143.134 447.462 144.476 447.462 146.456C447.462 148.436 448.65 149.778 450.454 149.778ZM463.409 152.176C460.725 152.176 459.119 150.526 458.569 148.898L460.835 147.974C461.165 149.096 462.023 150.02 463.409 150.02C464.443 150.02 465.125 149.47 465.125 148.766C465.125 146.676 459.075 148.04 459.075 143.838C459.075 142.1 460.593 140.736 463.013 140.736C465.169 140.736 466.995 141.836 467.479 143.442L465.235 144.388C464.927 143.332 463.959 142.782 463.057 142.782C462.177 142.782 461.583 143.156 461.583 143.794C461.583 145.752 467.677 144.19 467.677 148.722C467.677 150.636 465.961 152.176 463.409 152.176ZM477.889 136.6H483.741C485.237 136.6 486.432 137.011 487.327 137.832C488.221 138.639 488.669 139.717 488.669 141.066C488.669 142.415 488.221 143.501 487.327 144.322C486.432 145.129 485.237 145.532 483.741 145.532H479.891V152H477.889V136.6ZM483.675 143.728C484.584 143.728 485.295 143.493 485.809 143.024C486.337 142.555 486.601 141.902 486.601 141.066C486.601 140.23 486.337 139.577 485.809 139.108C485.295 138.624 484.584 138.382 483.675 138.382H479.891V143.728H483.675ZM492.054 136.424H493.924V152H492.054V136.424ZM505.115 144.784C505.115 144.021 504.865 143.42 504.367 142.98C503.883 142.525 503.23 142.298 502.409 142.298C501.646 142.298 501.015 142.511 500.517 142.936C500.018 143.361 499.732 143.948 499.659 144.696L497.921 144.366C498.082 143.266 498.573 142.386 499.395 141.726C500.231 141.066 501.235 140.736 502.409 140.736C503.773 140.736 504.873 141.11 505.709 141.858C506.545 142.606 506.963 143.618 506.963 144.894V152H505.115V150.108C504.792 150.739 504.293 151.245 503.619 151.626C502.959 151.993 502.225 152.176 501.419 152.176C500.319 152.176 499.417 151.875 498.713 151.274C498.023 150.658 497.679 149.866 497.679 148.898C497.679 147.842 498.111 147.013 498.977 146.412C499.857 145.811 501.184 145.422 502.959 145.246L505.115 145.004V144.784ZM499.549 148.876C499.549 149.389 499.747 149.815 500.143 150.152C500.553 150.475 501.074 150.636 501.705 150.636C502.775 150.636 503.611 150.306 504.213 149.646C504.814 148.986 505.115 148.099 505.115 146.984V146.456L502.959 146.698C501.844 146.815 500.993 147.065 500.407 147.446C499.835 147.813 499.549 148.289 499.549 148.876ZM517.155 151.912C516.671 152.088 516.091 152.176 515.417 152.176C514.419 152.176 513.62 151.89 513.019 151.318C512.432 150.731 512.139 149.851 512.139 148.678V142.562H510.071V140.912H512.139V137.546H514.009V140.912H516.979V142.562H514.009V148.744C514.009 149.316 514.155 149.749 514.449 150.042C514.742 150.335 515.138 150.482 515.637 150.482C516.179 150.482 516.641 150.387 517.023 150.196L517.155 151.912ZM521.757 142.562H519.865V140.912H521.757V139.878C521.757 138.69 522.058 137.773 522.659 137.128C523.26 136.468 524.052 136.138 525.035 136.138C525.622 136.138 526.12 136.197 526.531 136.314L526.443 137.986C526.062 137.839 525.673 137.766 525.277 137.766C524.778 137.766 524.375 137.949 524.067 138.316C523.774 138.668 523.627 139.137 523.627 139.724V140.912H526.465V142.562H523.627V152H521.757V142.562ZM534.297 152.176C533.212 152.176 532.236 151.934 531.371 151.45C530.52 150.951 529.853 150.269 529.369 149.404C528.9 148.539 528.665 147.556 528.665 146.456C528.665 145.356 528.9 144.373 529.369 143.508C529.853 142.643 530.52 141.968 531.371 141.484C532.236 140.985 533.212 140.736 534.297 140.736C535.382 140.736 536.35 140.985 537.201 141.484C538.066 141.968 538.741 142.643 539.225 143.508C539.709 144.373 539.951 145.356 539.951 146.456C539.951 147.556 539.709 148.539 539.225 149.404C538.741 150.269 538.066 150.951 537.201 151.45C536.35 151.934 535.382 152.176 534.297 152.176ZM530.579 146.456C530.579 147.644 530.924 148.619 531.613 149.382C532.302 150.13 533.197 150.504 534.297 150.504C535.397 150.504 536.292 150.13 536.981 149.382C537.67 148.619 538.015 147.644 538.015 146.456C538.015 145.268 537.67 144.3 536.981 143.552C536.292 142.789 535.397 142.408 534.297 142.408C533.197 142.408 532.302 142.789 531.613 143.552C530.924 144.3 530.579 145.268 530.579 146.456ZM550.154 142.738C549.743 142.562 549.267 142.474 548.724 142.474C547.785 142.474 547.015 142.929 546.414 143.838C545.827 144.733 545.534 146.045 545.534 147.776V152H543.664V140.912H545.534V143.156C545.857 142.452 546.341 141.873 546.986 141.418C547.631 140.963 548.299 140.736 548.988 140.736C549.472 140.736 549.897 140.802 550.264 140.934L550.154 142.738ZM553.406 140.912H555.276V143.002C555.569 142.313 555.995 141.763 556.552 141.352C557.124 140.941 557.813 140.736 558.62 140.736C559.529 140.736 560.307 140.941 560.952 141.352C561.612 141.763 562.037 142.335 562.228 143.068C562.536 142.379 563.005 141.821 563.636 141.396C564.281 140.956 565.007 140.736 565.814 140.736C567.002 140.736 567.941 141.081 568.63 141.77C569.334 142.459 569.686 143.391 569.686 144.564V152H567.816V144.938C567.816 144.161 567.603 143.545 567.178 143.09C566.753 142.621 566.159 142.386 565.396 142.386C564.472 142.386 563.753 142.76 563.24 143.508C562.727 144.256 562.47 145.231 562.47 146.434V152H560.6V144.938C560.6 144.161 560.387 143.545 559.962 143.09C559.551 142.621 558.965 142.386 558.202 142.386C557.278 142.386 556.559 142.76 556.046 143.508C555.533 144.256 555.276 145.231 555.276 146.434V152H553.406V140.912Z" fill="black"/>
<rect x="203" width="1.88838" height="161.457" fill="black"/>
<defs>
<clipPath id="clip0_358_63">
<rect width="330.7" height="123.2" fill="white" transform="translate(245.231 -0.0217285)"/>
</clipPath>
</defs>
</svg>
