<svg xmlns="http://www.w3.org/2000/svg" viewBox="0 0 121 44" fill="currentColor">
    <path d="M0 29.9c0 .1 0 .3.1.4.1.1.2.2.4.2h.9c.4 0 .6-.2.6-.6V17.7c.2-.2 2.6-3 6.3-3 3.3 0 5.2 2.1 5.2 6v9.2c0 .3.3.6.6.6h.9c.3 0 .6-.2.6-.6v-9.2c0-5.1-2.6-7.6-7.2-7.6-2.4 0-4.7.9-6.4 2.4V1.4c0-.3-.3-.6-.6-.6H.7c-.4 0-.7.3-.7.6v28.5zm19.4-9.2c.2-3.9 2.7-6.7 6.5-6.7s5.9 3 5.9 6.7H19.4zm-2.1.9c0 5 3.4 8.9 8.6 8.9 2.6 0 5.3-1.1 6.2-1.9.3-.3.3-.5.2-.7l-.5-.6c-.2-.3-.4-.3-.8 0-1.5 1-3.2 1.6-5 1.6-3.8 0-6.5-2.9-6.7-6.7H33c.7 0 .7-.7.7-1.2 0-5.1-3.4-8.7-7.9-8.7-5.1.1-8.5 4.3-8.5 9.3zM36.2 30c0 .1 0 .3.1.4.1.1.2.2.3.2h.7c.3 0 .5-.2.5-.6V1.4c0-.3-.2-.6-.5-.6h-.7c-.3 0-.5.2-.5.6l.1 28.6zm6.2-2.8V16.7c.1-.4 1.9-2.7 5.2-2.7 3.8 0 6.4 3.4 6.4 7.6 0 4.3-2.8 7.7-6.8 7.7-2.9 0-4.7-2-4.8-2.1zm-.1 2.1c.5.4 2.2 1.6 5 1.6 5 0 8.6-3.9 8.6-9.2 0-5.3-3.6-9.3-8.3-9.3-2 0-3.9.7-5.5 1.9l-.1-1.1c0-.2-.2-.3-.6-.3H41c-.3 0-.6.2-.7.6v29.7c0 .3.3.6.6.6h.8c.3 0 .6-.2.6-.6V29.3zm15.6-.4c.8.6 2.7 1.6 5.3 1.6 4.6 0 6.9-2.3 6.9-5.4 0-2.8-1.9-4.1-4.4-5.6-1.4-.8-2.3-1.3-2.3-2.3 0-.8.7-1.6 2.2-1.6 1.1 0 2.2.3 3.2.9.3.2.8 0 1-.4l.8-1.4c.3-.4.3-.8-.2-1.1-.7-.5-2.3-1.2-4.6-1.2-4.9 0-6.8 2.5-6.8 5s1.8 4 4.1 5.4c1.9 1.1 2.6 1.7 2.6 2.7 0 1.2-1.2 1.8-2.4 1.8-1.3 0-2.6-.4-3.6-1.1-.4-.3-.8-.1-1 .2l-1 1.6c-.1.1-.2.3-.1.4 0 .3.1.4.3.5zm13.7.8c0 .4.2.8.6.8h2.6c.6 0 .8-.3.9-.8l1.5-10.3c.4-.7 2.2-2.7 4.3-2.7 1.9 0 2.9 1.6 2.5 4.4l-1.2 8.6c0 .4.2.8.6.8H86c.4 0 .8-.4.9-.8l1.2-8.6c.6-4.7-1-8-5.5-8-2.2 0-4.1 1.3-4.7 1.8l1.9-13.2c0-.2 0-.4-.1-.5s-.3-.3-.5-.3h-2.7c-.4 0-.8.4-.8.8l-4.1 28zm18.1 0c0 .4.2.8.6.8H93c.4 0 .8-.4.9-.8l2.2-15.5c0-.4-.2-.8-.6-.8h-2.7c-.5 0-.8.4-.9.8l-2.2 15.5zm5.4-23.3c1.5 0 2.9-1.2 2.9-2.6 0-.6-.2-1.1-.6-1.5-.4-.4-1-.6-1.5-.6-1.5 0-2.7 1.2-2.8 2.7-.1 1.1.8 2 2 2zm2 36.5c0 .4.2.8.6.8h2.8c.4 0 .8-.4.9-.8l3.6-26.1h4.6c.4 0 .8-.3.9-.7l.3-1.7c0-.2 0-.4-.1-.5-.1-.1-.3-.2-.5-.2h-4.6l.8-5.6c.4-3 1.8-4.3 3.5-4.3.9 0 1.9.5 2.5.9.4.3.7.1 1-.2l1.2-1.8c.2-.3.2-.7 0-.9-1-.8-2.5-1.8-4.6-1.8-4.1 0-7.2 2.6-8 8l-.8 5.6h-2c-.4 0-.8.3-.8.7l-.4 1.8c0 .2 0 .4.2.5.1.1.3.2.5.2h2l-3.6 26.1z"/>
    <path d="M110.8 26.3c-.4 3 .3 5 3.4 5 1.9 0 4.4-1 4.8-1.2.4-.2.7-.5.5-1l-.5-1.9c-.1-.4-.3-.7-.8-.4-.5.3-1.5.8-2.3.8-.7 0-1.2-.3-1-1.8l1.2-8.9h3.8c.4 0 .8-.3.8-.7l.3-1.7c.1-.4-.2-.7-.7-.7h-3.7l.7-4.7c0-.4-.2-.8-.6-.8h-2.6c-.4.1-.8.4-.9.8l-.7 4.6h-3.6c-.4 0-.8.3-.8.7l-.3 1.7c0 .2 0 .4.1.5.1.1.3.2.5.2h3.5l-1.1 9.5z"/>
</svg>
